<svg width="644" height="32" viewBox="0 0 644 32" fill="none" xmlns="http://www.w3.org/2000/svg">
<g clip-path="url(#clip0_1_45)">
<mask id="mask0_1_45" style="mask-type:luminance" maskUnits="userSpaceOnUse" x="0" y="0" width="644" height="32">
<path d="M644 0H0V31.1111H644V0Z" fill="white"/>
</mask>
<g mask="url(#mask0_1_45)">
<path d="M0 12.4445C0 8.08848 0 5.9105 0.847727 4.24674C1.59341 2.78326 2.78326 1.59341 4.24674 0.847727C5.9105 0 8.08848 0 12.4444 0H631.555C635.911 0 638.089 0 639.753 0.847727C641.217 1.59341 642.407 2.78326 643.152 4.24674C644 5.9105 644 8.08848 644 12.4444V31.1111H0V12.4445Z" fill="#25334D"/>
<mask id="mask1_1_45" style="mask-type:luminance" maskUnits="userSpaceOnUse" x="556" y="5" width="76" height="20">
<path d="M631.556 5.44446H556.889V24.1112H631.556V5.44446Z" fill="white"/>
</mask>
<g mask="url(#mask1_1_45)">
<path d="M566.229 16.6239C566.557 16.6239 566.828 16.353 566.828 16.0305V9.54144L566.783 8.58679L567.176 9.05767L568.079 10.0188C568.182 10.1349 568.33 10.1929 568.478 10.1929C568.775 10.1929 569.02 9.98007 569.02 9.6769C569.02 9.51564 568.955 9.39953 568.846 9.28988L566.686 7.20641C566.532 7.0516 566.383 7 566.229 7C566.067 7 565.926 7.0516 565.771 7.20641L563.605 9.28988C563.496 9.39953 563.431 9.51564 563.431 9.6769C563.431 9.98007 563.67 10.1929 563.966 10.1929C564.114 10.1929 564.269 10.1349 564.372 10.0188L565.275 9.05767L565.674 8.58034L565.623 9.54144V16.0305C565.623 16.353 565.893 16.6239 566.229 16.6239ZM562.509 21.7778H569.935C571.334 21.7778 572.056 21.0553 572.056 19.675V13.3343C572.056 11.9539 571.334 11.2314 569.935 11.2314H568.195V12.5151H569.851C570.438 12.5151 570.773 12.8247 570.773 13.4439V19.5589C570.773 20.1781 570.438 20.4877 569.851 20.4877H562.593C562 20.4877 561.672 20.1781 561.672 19.5589V13.4439C561.672 12.8247 562 12.5151 562.593 12.5151H564.269V11.2314H562.509C561.117 11.2314 560.389 11.9474 560.389 13.3343V19.675C560.389 21.0553 561.117 21.7778 562.509 21.7778Z" fill="#B7B7B7"/>
<path d="M593.444 20.2223C593.854 20.2223 594.186 19.8896 594.186 19.5121V15.5072H598.154C598.551 15.5072 598.889 15.1809 598.889 14.7778C598.889 14.3812 598.551 14.0485 598.154 14.0485H594.186V10.0435C594.186 9.65966 593.854 9.33337 593.444 9.33337C593.041 9.33337 592.703 9.65966 592.703 10.0435V14.0485H588.735C588.351 14.0485 588 14.3812 588 14.7778C588 15.1809 588.351 15.5072 588.735 15.5072H592.703V19.5121C592.703 19.8896 593.041 20.2223 593.444 20.2223Z" fill="#B7B7B7"/>
<path d="M617.344 18.6938H618.44V19.6675C618.44 21.0475 619.169 21.7698 620.562 21.7698H627.101C628.493 21.7698 629.222 21.0475 629.222 19.6675V13.0834C629.222 11.7034 628.493 10.9812 627.101 10.9812H626.004V10.0139C626.004 8.63387 625.276 7.91162 623.883 7.91162H617.344C615.944 7.91162 615.222 8.63387 615.222 10.0139V16.5915C615.222 17.978 615.944 18.6938 617.344 18.6938ZM617.428 17.4105C616.834 17.4105 616.505 17.1009 616.505 16.4754V10.13C616.505 9.50444 616.834 9.20135 617.428 9.20135H623.799C624.386 9.20135 624.721 9.50444 624.721 10.13V10.9812H620.562C619.169 10.9812 618.44 11.7034 618.44 13.0834V17.4105H617.428ZM620.645 20.48C620.052 20.48 619.73 20.1705 619.73 19.5514V13.1995C619.73 12.5804 620.052 12.2709 620.645 12.2709H627.017C627.61 12.2709 627.939 12.5804 627.939 13.1995V19.5514C627.939 20.1705 627.61 20.48 627.017 20.48H620.645Z" fill="#B7B7B7"/>
</g>
<mask id="mask2_1_45" style="mask-type:luminance" maskUnits="userSpaceOnUse" x="74" y="5" width="77" height="20">
<path d="M150.889 5.44446H74.6666V24.1112H150.889V5.44446Z" fill="white"/>
</mask>
<g mask="url(#mask2_1_45)">
<path d="M78.3463 21.3999H89.3928C90.7937 21.3999 91.5233 20.6769 91.5233 19.2952V11.4381C91.5233 10.0565 90.7937 9.33337 89.3928 9.33337H78.3463C76.9517 9.33337 76.2222 10.05 76.2222 11.4381V19.2952C76.2222 20.6769 76.9517 21.3999 78.3463 21.3999ZM78.4302 20.1152C77.8362 20.1152 77.507 19.8053 77.507 19.179V11.5543C77.507 10.928 77.8362 10.6182 78.4302 10.6182H81.3742V20.1152H78.4302ZM89.3088 10.6182C89.9028 10.6182 90.2321 10.928 90.2321 11.5543V19.179C90.2321 19.8053 89.9028 20.1152 89.3088 20.1152H82.5944V10.6182H89.3088ZM80.1088 12.9811C80.3412 12.9811 80.5349 12.781 80.5349 12.5615C80.5349 12.3419 80.3412 12.1483 80.1088 12.1483H78.7853C78.5529 12.1483 78.3592 12.3419 78.3592 12.5615C78.3592 12.781 78.5529 12.9811 78.7853 12.9811H80.1088ZM80.1088 14.7178C80.3412 14.7178 80.5349 14.5241 80.5349 14.2982C80.5349 14.0787 80.3412 13.885 80.1088 13.885H78.7853C78.5529 13.885 78.3592 14.0787 78.3592 14.2982C78.3592 14.5241 78.5529 14.7178 78.7853 14.7178H80.1088ZM80.1088 16.4481C80.3412 16.4481 80.5349 16.2608 80.5349 16.0349C80.5349 15.8154 80.3412 15.6281 80.1088 15.6281H78.7853C78.5529 15.6281 78.3592 15.8154 78.3592 16.0349C78.3592 16.2608 78.5529 16.4481 78.7853 16.4481H80.1088Z" fill="#B7B7B7"/>
<path d="M116.199 20.2952L111.471 15.6711C111.307 15.507 111.222 15.3247 111.222 15.112C111.222 14.8994 111.307 14.7049 111.477 14.5469L116.205 9.92889C116.339 9.79521 116.509 9.72229 116.703 9.72229C117.11 9.72229 117.426 10.0383 117.426 10.4393C117.426 10.6337 117.347 10.8221 117.207 10.9619L112.954 15.106L117.207 19.2622C117.347 19.402 117.426 19.5843 117.426 19.7848C117.426 20.1858 117.11 20.5018 116.703 20.5018C116.509 20.5018 116.339 20.4289 116.199 20.2952Z" fill="#B7B7B7"/>
<path d="M139.556 20.5018C139.757 20.5018 139.921 20.4289 140.061 20.2952L144.788 15.6772C144.952 15.507 145.037 15.3308 145.037 15.112C145.037 14.8994 144.958 14.711 144.788 14.553L140.061 9.92889C139.921 9.79521 139.757 9.72229 139.556 9.72229C139.149 9.72229 138.833 10.0383 138.833 10.4393C138.833 10.6337 138.918 10.8221 139.052 10.9619L143.312 15.1181L139.052 19.2622C138.912 19.4081 138.833 19.5843 138.833 19.7848C138.833 20.1858 139.149 20.5018 139.556 20.5018Z" fill="#5A5A5A"/>
</g>
<mask id="mask3_1_45" style="mask-type:luminance" maskUnits="userSpaceOnUse" x="15" y="10" width="41" height="11">
<path d="M55.9999 10.8889H15.5555V20.2222H55.9999V10.8889Z" fill="white"/>
</mask>
<g mask="url(#mask3_1_45)">
<path d="M20.2222 20.2223C22.7995 20.2223 24.8889 18.1329 24.8889 15.5556C24.8889 12.9783 22.7995 10.8889 20.2222 10.8889C17.6449 10.8889 15.5555 12.9783 15.5555 15.5556C15.5555 18.1329 17.6449 20.2223 20.2222 20.2223Z" fill="#ED6A5E"/>
<path d="M20.2222 19.8334C22.5848 19.8334 24.5 17.9182 24.5 15.5556C24.5 13.193 22.5848 11.2778 20.2222 11.2778C17.8597 11.2778 15.9444 13.193 15.9444 15.5556C15.9444 17.9182 17.8597 19.8334 20.2222 19.8334Z" stroke="black" stroke-opacity="0.1" stroke-width="0.777778"/>
<path d="M35.7778 20.2223C38.3551 20.2223 40.4445 18.1329 40.4445 15.5556C40.4445 12.9783 38.3551 10.8889 35.7778 10.8889C33.2005 10.8889 31.1111 12.9783 31.1111 15.5556C31.1111 18.1329 33.2005 20.2223 35.7778 20.2223Z" fill="#F4BD50"/>
<path d="M35.7778 19.8334C38.1404 19.8334 40.0556 17.9182 40.0556 15.5556C40.0556 13.193 38.1404 11.2778 35.7778 11.2778C33.4153 11.2778 31.5 13.193 31.5 15.5556C31.5 17.9182 33.4153 19.8334 35.7778 19.8334Z" stroke="black" stroke-opacity="0.1" stroke-width="0.777778"/>
<path d="M51.3333 20.2223C53.9106 20.2223 56 18.1329 56 15.5556C56 12.9783 53.9106 10.8889 51.3333 10.8889C48.756 10.8889 46.6666 12.9783 46.6666 15.5556C46.6666 18.1329 48.756 20.2223 51.3333 20.2223Z" fill="#61C454"/>
<path d="M51.3333 19.8334C53.6959 19.8334 55.6111 17.9182 55.6111 15.5556C55.6111 13.193 53.6959 11.2778 51.3333 11.2778C48.9708 11.2778 47.0555 13.193 47.0555 15.5556C47.0555 17.9182 48.9708 19.8334 51.3333 19.8334Z" stroke="black" stroke-opacity="0.1" stroke-width="0.777778"/>
</g>
<path d="M220.889 21.7778C221.005 21.7778 221.178 21.7388 221.339 21.6478C225.046 19.6141 226.333 18.672 226.333 16.3069V11.4014C226.333 10.6217 226.031 10.3423 225.387 10.0629C224.673 9.75756 222.272 8.9129 221.571 8.6725C221.359 8.60102 221.108 8.55554 220.889 8.55554C220.67 8.55554 220.419 8.61402 220.207 8.6725C219.505 8.87391 217.105 9.76406 216.39 10.0629C215.747 10.3358 215.444 10.6217 215.444 11.4014V16.3069C215.444 18.672 216.738 19.6011 220.432 21.6478C220.599 21.7388 220.773 21.7778 220.889 21.7778ZM221.236 9.86802C222.079 10.2059 223.914 10.8621 224.879 11.2065C225.059 11.278 225.104 11.3754 225.104 11.6093V16.0665C225.104 17.9703 224.158 18.4836 221.256 20.2509C221.075 20.3613 220.985 20.4003 220.895 20.4003V9.79655C220.985 9.79655 221.082 9.81604 221.236 9.86802Z" fill="#B7B7B7"/>
<mask id="mask4_1_45" style="mask-type:luminance" maskUnits="userSpaceOnUse" x="234" y="4" width="186" height="23">
<path d="M420 4.66663H234.111V26.4444H420V4.66663Z" fill="white"/>
</mask>
<g mask="url(#mask4_1_45)">
<path d="M234 12.2C234 9.67976 234 8.41964 234.539 7.45704C235.012 6.61031 235.767 5.9219 236.696 5.49047C237.752 5 239.135 5 241.901 5H412.099C414.865 5 416.248 5 417.304 5.49047C418.233 5.9219 418.988 6.61031 419.461 7.45704C420 8.41964 420 9.67976 420 12.2V18.8C420 21.3202 420 22.5804 419.461 23.543C418.988 24.3896 418.233 25.0781 417.304 25.5096C416.248 26 414.865 26 412.099 26H241.901C239.135 26 237.752 26 236.696 25.5096C235.767 25.0781 235.012 24.3896 234.539 23.543C234 22.5804 234 21.3202 234 18.8V12.2Z" fill="#3C5175"/>
<path d="M267.661 20L266.177 14.5455H267.708L268.553 18.2102H268.603L269.483 14.5455H270.985L271.88 18.1889H271.926L272.757 14.5455H274.284L272.804 20H271.202L270.264 16.5696H270.197L269.26 20H267.661ZM276.167 20L274.683 14.5455H276.214L277.059 18.2102H277.108L277.989 14.5455H279.491L280.386 18.1889H280.432L281.263 14.5455H282.79L281.309 20H279.708L278.77 16.5696H278.703L277.765 20H276.167ZM284.673 20L283.189 14.5455H284.719L285.565 18.2102H285.614L286.495 14.5455H287.997L288.892 18.1889H288.938L289.769 14.5455H291.296L289.815 20H288.214L287.276 16.5696H287.209L286.271 20H284.673ZM292.245 20.0923C292.011 20.0923 291.81 20.0095 291.641 19.8438C291.476 19.6757 291.393 19.4744 291.393 19.2401C291.393 19.008 291.476 18.8092 291.641 18.6435C291.81 18.4777 292.011 18.3949 292.245 18.3949C292.472 18.3949 292.671 18.4777 292.842 18.6435C293.012 18.8092 293.097 19.008 293.097 19.2401C293.097 19.3963 293.057 19.5395 292.977 19.6697C292.899 19.7976 292.796 19.9006 292.668 19.9787C292.54 20.0545 292.399 20.0923 292.245 20.0923ZM294.339 20V14.5455H295.781V15.5078H295.845C295.959 15.1882 296.148 14.9361 296.413 14.7514C296.678 14.5668 296.996 14.4744 297.365 14.4744C297.739 14.4744 298.057 14.5679 298.32 14.755C298.583 14.9396 298.758 15.1906 298.846 15.5078H298.903C299.014 15.1953 299.215 14.9455 299.506 14.7585C299.8 14.5691 300.147 14.4744 300.547 14.4744C301.056 14.4744 301.469 14.6366 301.786 14.9609C302.106 15.2829 302.266 15.7398 302.266 16.3317V20H300.756V16.63C300.756 16.3269 300.676 16.0997 300.515 15.9482C300.354 15.7966 300.153 15.7209 299.911 15.7209C299.637 15.7209 299.422 15.8085 299.268 15.9837C299.115 16.1565 299.038 16.3849 299.038 16.669V20H297.571V16.598C297.571 16.3305 297.494 16.1174 297.34 15.9588C297.189 15.8002 296.989 15.7209 296.74 15.7209C296.572 15.7209 296.42 15.7635 296.285 15.8487C296.153 15.9316 296.048 16.0488 295.969 16.2003C295.891 16.3494 295.852 16.5246 295.852 16.7259V20H294.339ZM305.016 20.103C304.668 20.103 304.358 20.0426 304.086 19.9219C303.813 19.7988 303.598 19.6177 303.439 19.3786C303.283 19.1371 303.205 18.8364 303.205 18.4766C303.205 18.1735 303.26 17.919 303.372 17.7131C303.483 17.5071 303.635 17.3414 303.826 17.2159C304.018 17.0904 304.236 16.9957 304.48 16.9318C304.726 16.8679 304.984 16.8229 305.254 16.7969C305.571 16.7637 305.827 16.733 306.021 16.7045C306.215 16.6738 306.356 16.6288 306.443 16.5696C306.531 16.5104 306.575 16.4228 306.575 16.3068V16.2855C306.575 16.0606 306.504 15.8866 306.362 15.7635C306.222 15.6404 306.023 15.5788 305.765 15.5788C305.493 15.5788 305.276 15.6392 305.115 15.7599C304.954 15.8783 304.848 16.0275 304.796 16.2074L303.397 16.0938C303.468 15.7623 303.607 15.4759 303.816 15.2344C304.024 14.9905 304.293 14.8035 304.622 14.6733C304.953 14.5407 305.337 14.4744 305.772 14.4744C306.075 14.4744 306.365 14.5099 306.642 14.581C306.922 14.652 307.169 14.7621 307.385 14.9112C307.602 15.0604 307.774 15.2521 307.899 15.4865C308.025 15.7185 308.088 15.9967 308.088 16.321V20H306.653V19.2436H306.61C306.523 19.4141 306.406 19.5644 306.259 19.6946C306.112 19.8224 305.936 19.9231 305.73 19.9964C305.524 20.0675 305.286 20.103 305.016 20.103ZM305.449 19.0589C305.672 19.0589 305.868 19.0152 306.039 18.9276C306.209 18.8376 306.343 18.7169 306.44 18.5653C306.537 18.4138 306.586 18.2422 306.586 18.0504V17.4716C306.538 17.5024 306.473 17.5308 306.39 17.5568C306.31 17.5805 306.219 17.603 306.117 17.6243C306.015 17.6432 305.913 17.661 305.811 17.6776C305.71 17.6918 305.617 17.7048 305.534 17.7166C305.357 17.7427 305.202 17.7841 305.069 17.8409C304.937 17.8977 304.834 17.9747 304.76 18.0717C304.687 18.1664 304.65 18.2848 304.65 18.4268C304.65 18.6328 304.725 18.7902 304.874 18.8991C305.025 19.0057 305.217 19.0589 305.449 19.0589ZM310.774 16.8466V20H309.261V14.5455H310.703V15.5078H310.767C310.888 15.1906 311.09 14.9396 311.374 14.755C311.658 14.5679 312.003 14.4744 312.408 14.4744C312.786 14.4744 313.117 14.5573 313.398 14.723C313.68 14.8887 313.899 15.1255 314.055 15.4332C314.212 15.7386 314.29 16.1032 314.29 16.527V20H312.777V16.7969C312.779 16.4631 312.694 16.2027 312.521 16.0156C312.348 15.8262 312.11 15.7315 311.807 15.7315C311.604 15.7315 311.424 15.7753 311.268 15.8629C311.114 15.9505 310.993 16.0784 310.905 16.2464C310.82 16.4122 310.776 16.6122 310.774 16.8466ZM316.853 18.4304L316.856 16.6158H317.076L318.824 14.5455H320.56L318.213 17.2869H317.854L316.853 18.4304ZM315.482 20V12.7273H316.995V20H315.482ZM318.891 20L317.286 17.6243L318.294 16.5554L320.663 20H318.891ZM321.302 20V14.5455H322.815V20H321.302ZM322.062 13.8423C321.837 13.8423 321.644 13.7678 321.483 13.6186C321.325 13.4671 321.245 13.286 321.245 13.0753C321.245 12.867 321.325 12.6882 321.483 12.5391C321.644 12.3875 321.837 12.3118 322.062 12.3118C322.287 12.3118 322.479 12.3875 322.638 12.5391C322.799 12.6882 322.879 12.867 322.879 13.0753C322.879 13.286 322.799 13.4671 322.638 13.6186C322.479 13.7678 322.287 13.8423 322.062 13.8423ZM324.027 20V14.5455H325.494V15.4972H325.55C325.65 15.1586 325.817 14.9029 326.051 14.7301C326.285 14.5549 326.555 14.4673 326.861 14.4673C326.936 14.4673 327.018 14.4721 327.106 14.4815C327.193 14.491 327.27 14.504 327.337 14.5206V15.8629C327.266 15.8416 327.167 15.8227 327.042 15.8061C326.916 15.7895 326.802 15.7812 326.697 15.7812C326.475 15.7812 326.276 15.8298 326.101 15.9268C325.928 16.0215 325.791 16.1541 325.689 16.3246C325.589 16.495 325.54 16.6915 325.54 16.9141V20H324.027ZM329.518 20.103C329.17 20.103 328.86 20.0426 328.587 19.9219C328.315 19.7988 328.1 19.6177 327.941 19.3786C327.785 19.1371 327.707 18.8364 327.707 18.4766C327.707 18.1735 327.762 17.919 327.874 17.7131C327.985 17.5071 328.136 17.3414 328.328 17.2159C328.52 17.0904 328.738 16.9957 328.982 16.9318C329.228 16.8679 329.486 16.8229 329.756 16.7969C330.073 16.7637 330.329 16.733 330.523 16.7045C330.717 16.6738 330.858 16.6288 330.945 16.5696C331.033 16.5104 331.077 16.4228 331.077 16.3068V16.2855C331.077 16.0606 331.006 15.8866 330.864 15.7635C330.724 15.6404 330.525 15.5788 330.267 15.5788C329.995 15.5788 329.778 15.6392 329.617 15.7599C329.456 15.8783 329.35 16.0275 329.298 16.2074L327.899 16.0938C327.97 15.7623 328.109 15.4759 328.318 15.2344C328.526 14.9905 328.795 14.8035 329.124 14.6733C329.455 14.5407 329.839 14.4744 330.274 14.4744C330.577 14.4744 330.867 14.5099 331.144 14.581C331.424 14.652 331.671 14.7621 331.886 14.9112C332.104 15.0604 332.276 15.2521 332.401 15.4865C332.527 15.7185 332.59 15.9967 332.59 16.321V20H331.155V19.2436H331.112C331.025 19.4141 330.908 19.5644 330.761 19.6946C330.614 19.8224 330.438 19.9231 330.232 19.9964C330.026 20.0675 329.788 20.103 329.518 20.103ZM329.951 19.0589C330.174 19.0589 330.37 19.0152 330.541 18.9276C330.711 18.8376 330.845 18.7169 330.942 18.5653C331.039 18.4138 331.087 18.2422 331.087 18.0504V17.4716C331.04 17.5024 330.975 17.5308 330.892 17.5568C330.812 17.5805 330.721 17.603 330.619 17.6243C330.517 17.6432 330.415 17.661 330.313 17.6776C330.212 17.6918 330.119 17.7048 330.036 17.7166C329.859 17.7427 329.704 17.7841 329.571 17.8409C329.439 17.8977 329.336 17.9747 329.262 18.0717C329.189 18.1664 329.152 18.2848 329.152 18.4268C329.152 18.6328 329.227 18.7902 329.376 18.8991C329.527 19.0057 329.719 19.0589 329.951 19.0589ZM336.665 14.5455V15.6818H333.38V14.5455H336.665ZM334.125 13.2386H335.638V18.3239C335.638 18.4635 335.66 18.5724 335.702 18.6506C335.745 18.7263 335.804 18.7796 335.88 18.8104C335.958 18.8411 336.048 18.8565 336.15 18.8565C336.221 18.8565 336.292 18.8506 336.363 18.8388C336.434 18.8246 336.488 18.8139 336.526 18.8068L336.764 19.9325C336.688 19.9562 336.582 19.9834 336.444 20.0142C336.307 20.0473 336.14 20.0675 335.944 20.0746C335.579 20.0888 335.259 20.0402 334.985 19.929C334.713 19.8177 334.501 19.6449 334.349 19.4105C334.198 19.1761 334.123 18.8802 334.125 18.5227V13.2386ZM342.12 16.1009L340.735 16.1861C340.711 16.0677 340.66 15.9612 340.582 15.8665C340.504 15.7694 340.401 15.6925 340.273 15.6357C340.148 15.5765 339.998 15.5469 339.822 15.5469C339.588 15.5469 339.39 15.5966 339.229 15.696C339.068 15.7931 338.988 15.9233 338.988 16.0866C338.988 16.2169 339.04 16.3269 339.144 16.4169C339.248 16.5069 339.427 16.5791 339.68 16.6335L340.668 16.8324C341.198 16.9413 341.593 17.1165 341.854 17.358C342.114 17.5994 342.244 17.9167 342.244 18.3097C342.244 18.6671 342.139 18.9808 341.928 19.2507C341.72 19.5206 341.433 19.7313 341.069 19.8828C340.707 20.032 340.289 20.1065 339.815 20.1065C339.093 20.1065 338.518 19.9562 338.089 19.6555C337.663 19.3525 337.414 18.9406 337.34 18.4197L338.828 18.3416C338.873 18.5618 338.982 18.7299 339.155 18.8459C339.328 18.9595 339.549 19.0163 339.819 19.0163C340.084 19.0163 340.297 18.9654 340.458 18.8636C340.621 18.7595 340.704 18.6257 340.707 18.4624C340.704 18.325 340.646 18.2126 340.533 18.125C340.419 18.035 340.244 17.9664 340.007 17.919L339.062 17.7308C338.53 17.6243 338.133 17.4396 337.873 17.1768C337.615 16.9141 337.486 16.5791 337.486 16.1719C337.486 15.8215 337.58 15.5196 337.77 15.2663C337.962 15.013 338.23 14.8177 338.576 14.6804C338.924 14.5431 339.331 14.4744 339.798 14.4744C340.486 14.4744 341.029 14.62 341.424 14.9112C341.822 15.2024 342.054 15.599 342.12 16.1009ZM343.197 20V14.5455H344.71V20H343.197ZM343.957 13.8423C343.732 13.8423 343.539 13.7678 343.378 13.6186C343.219 13.4671 343.14 13.286 343.14 13.0753C343.14 12.867 343.219 12.6882 343.378 12.5391C343.539 12.3875 343.732 12.3118 343.957 12.3118C344.182 12.3118 344.373 12.3875 344.532 12.5391C344.693 12.6882 344.774 12.867 344.774 13.0753C344.774 13.286 344.693 13.4671 344.532 13.6186C344.373 13.7678 344.182 13.8423 343.957 13.8423ZM347.434 16.8466V20H345.921V14.5455H347.363V15.5078H347.427C347.548 15.1906 347.75 14.9396 348.034 14.755C348.318 14.5679 348.663 14.4744 349.068 14.4744C349.447 14.4744 349.777 14.5573 350.059 14.723C350.34 14.8887 350.559 15.1255 350.715 15.4332C350.872 15.7386 350.95 16.1032 350.95 16.527V20H349.437V16.7969C349.439 16.4631 349.354 16.2027 349.181 16.0156C349.009 15.8262 348.771 15.7315 348.468 15.7315C348.264 15.7315 348.084 15.7753 347.928 15.8629C347.774 15.9505 347.653 16.0784 347.566 16.2464C347.48 16.4122 347.437 16.6122 347.434 16.8466ZM354.6 22.1591C354.109 22.1591 353.689 22.0916 353.339 21.9567C352.991 21.8241 352.714 21.643 352.508 21.4134C352.302 21.1837 352.168 20.9257 352.107 20.6392L353.506 20.451C353.548 20.5599 353.616 20.6617 353.708 20.7564C353.801 20.8511 353.922 20.9268 354.074 20.9837C354.228 21.0429 354.415 21.0724 354.635 21.0724C354.964 21.0724 355.235 20.992 355.448 20.831C355.664 20.6723 355.771 20.406 355.771 20.032V19.0341H355.707C355.641 19.1856 355.542 19.3288 355.409 19.4638C355.277 19.5987 355.106 19.7088 354.898 19.794C354.689 19.8793 354.441 19.9219 354.152 19.9219C353.743 19.9219 353.37 19.8272 353.033 19.6378C352.7 19.446 352.433 19.1536 352.234 18.7607C352.038 18.3653 351.94 17.8658 351.94 17.2621C351.94 16.6442 352.04 16.1281 352.242 15.7138C352.443 15.2995 352.71 14.9893 353.044 14.7834C353.38 14.5774 353.748 14.4744 354.149 14.4744C354.454 14.4744 354.71 14.5265 354.916 14.6307C355.122 14.7325 355.287 14.8603 355.413 15.0142C355.541 15.1657 355.639 15.3149 355.707 15.4616H355.764V14.5455H357.266V20.0533C357.266 20.5173 357.153 20.9055 356.926 21.218C356.698 21.5305 356.383 21.7649 355.981 21.9212C355.581 22.0798 355.12 22.1591 354.6 22.1591ZM354.631 18.7855C354.875 18.7855 355.081 18.7251 355.249 18.6044C355.42 18.4813 355.55 18.3061 355.64 18.0788C355.732 17.8492 355.779 17.5746 355.779 17.255C355.779 16.9354 355.734 16.6584 355.644 16.424C355.554 16.1873 355.423 16.0038 355.253 15.8736C355.082 15.7434 354.875 15.6783 354.631 15.6783C354.383 15.6783 354.173 15.7457 354.003 15.8807C353.832 16.0133 353.703 16.1979 353.616 16.4347C353.528 16.6714 353.484 16.9448 353.484 17.255C353.484 17.5698 353.528 17.8421 353.616 18.0717C353.706 18.299 353.835 18.4754 354.003 18.6009C354.173 18.724 354.383 18.7855 354.631 18.7855ZM359.983 16.8466V20H358.47V12.7273H359.94V15.5078H360.004C360.127 15.1858 360.326 14.9337 360.601 14.7514C360.876 14.5668 361.22 14.4744 361.634 14.4744C362.013 14.4744 362.343 14.5573 362.625 14.723C362.909 14.8864 363.129 15.1219 363.286 15.4297C363.444 15.7351 363.522 16.1009 363.52 16.527V20H362.007V16.7969C362.01 16.4607 361.924 16.1991 361.752 16.0121C361.581 15.825 361.342 15.7315 361.034 15.7315C360.828 15.7315 360.646 15.7753 360.487 15.8629C360.331 15.9505 360.208 16.0784 360.118 16.2464C360.03 16.4122 359.985 16.6122 359.983 16.8466ZM365.595 20.0923C365.36 20.0923 365.159 20.0095 364.991 19.8438C364.825 19.6757 364.742 19.4744 364.742 19.2401C364.742 19.008 364.825 18.8092 364.991 18.6435C365.159 18.4777 365.36 18.3949 365.595 18.3949C365.822 18.3949 366.021 18.4777 366.191 18.6435C366.362 18.8092 366.447 19.008 366.447 19.2401C366.447 19.3963 366.407 19.5395 366.326 19.6697C366.248 19.7976 366.145 19.9006 366.017 19.9787C365.889 20.0545 365.749 20.0923 365.595 20.0923ZM370.154 20.1065C369.595 20.1065 369.114 19.9882 368.712 19.7514C368.312 19.5123 368.004 19.1809 367.788 18.7571C367.575 18.3333 367.469 17.8456 367.469 17.294C367.469 16.7353 367.577 16.2453 367.792 15.8239C368.01 15.4001 368.319 15.0698 368.719 14.8331C369.119 14.594 369.595 14.4744 370.146 14.4744C370.622 14.4744 371.039 14.5608 371.396 14.7337C371.754 14.9065 372.037 15.1491 372.245 15.4616C372.453 15.7741 372.568 16.1411 372.59 16.5625H371.162C371.122 16.2902 371.015 16.0713 370.842 15.9055C370.672 15.7375 370.448 15.6534 370.171 15.6534C369.937 15.6534 369.732 15.7173 369.557 15.8452C369.384 15.9706 369.249 16.1541 369.152 16.3956C369.055 16.6371 369.006 16.9295 369.006 17.2727C369.006 17.6207 369.054 17.9167 369.149 18.1605C369.246 18.4044 369.382 18.5902 369.557 18.718C369.732 18.8459 369.937 18.9098 370.171 18.9098C370.344 18.9098 370.499 18.8743 370.636 18.8033C370.776 18.7322 370.891 18.6293 370.981 18.4943C371.073 18.357 371.134 18.1925 371.162 18.0007H372.59C372.566 18.4174 372.452 18.7843 372.249 19.1016C372.047 19.4164 371.769 19.6626 371.414 19.8402C371.059 20.0178 370.639 20.1065 370.154 20.1065ZM376.023 20.1065C375.471 20.1065 374.994 19.9893 374.592 19.755C374.191 19.5182 373.882 19.1892 373.665 18.7678C373.447 18.344 373.338 17.8527 373.338 17.294C373.338 16.7306 373.447 16.2382 373.665 15.8168C373.882 15.393 374.191 15.0639 374.592 14.8295C374.994 14.5928 375.471 14.4744 376.023 14.4744C376.574 14.4744 377.05 14.5928 377.45 14.8295C377.853 15.0639 378.163 15.393 378.381 15.8168C378.598 16.2382 378.707 16.7306 378.707 17.294C378.707 17.8527 378.598 18.344 378.381 18.7678C378.163 19.1892 377.853 19.5182 377.45 19.755C377.05 19.9893 376.574 20.1065 376.023 20.1065ZM376.03 18.9347C376.281 18.9347 376.49 18.8636 376.658 18.7216C376.826 18.5772 376.953 18.3807 377.038 18.1321C377.126 17.8835 377.17 17.6006 377.17 17.2834C377.17 16.9661 377.126 16.6832 377.038 16.4347C376.953 16.1861 376.826 15.9896 376.658 15.8452C376.49 15.7008 376.281 15.6286 376.03 15.6286C375.776 15.6286 375.563 15.7008 375.391 15.8452C375.22 15.9896 375.091 16.1861 375.003 16.4347C374.918 16.6832 374.876 16.9661 374.876 17.2834C374.876 17.6006 374.918 17.8835 375.003 18.1321C375.091 18.3807 375.22 18.5772 375.391 18.7216C375.563 18.8636 375.776 18.9347 376.03 18.9347ZM379.691 20V14.5455H381.133V15.5078H381.197C381.31 15.1882 381.5 14.9361 381.765 14.7514C382.03 14.5668 382.347 14.4744 382.717 14.4744C383.091 14.4744 383.409 14.5679 383.672 14.755C383.935 14.9396 384.11 15.1906 384.197 15.5078H384.254C384.365 15.1953 384.567 14.9455 384.858 14.7585C385.151 14.5691 385.498 14.4744 385.898 14.4744C386.407 14.4744 386.82 14.6366 387.138 14.9609C387.457 15.2829 387.617 15.7398 387.617 16.3317V20H386.108V16.63C386.108 16.3269 386.027 16.0997 385.866 15.9482C385.705 15.7966 385.504 15.7209 385.263 15.7209C384.988 15.7209 384.774 15.8085 384.62 15.9837C384.466 16.1565 384.389 16.3849 384.389 16.669V20H382.923V16.598C382.923 16.3305 382.846 16.1174 382.692 15.9588C382.54 15.8002 382.34 15.7209 382.092 15.7209C381.923 15.7209 381.772 15.7635 381.637 15.8487C381.504 15.9316 381.399 16.0488 381.321 16.2003C381.243 16.3494 381.204 16.5246 381.204 16.7259V20H379.691Z" fill="white"/>
<mask id="mask5_1_45" style="mask-type:luminance" maskUnits="userSpaceOnUse" x="405" y="11" width="11" height="11">
<path d="M415.117 11H405.006V21.8889H415.117V11Z" fill="white"/>
</mask>
<g mask="url(#mask5_1_45)">
<path d="M409.929 16.2363C410.062 16.2363 410.166 16.1953 410.248 16.1087L412.117 14.2265C412.217 14.1263 412.263 14.0169 412.263 13.8893C412.263 13.7663 412.213 13.6478 412.117 13.5566L410.248 11.6562C410.166 11.5651 410.062 11.5195 409.929 11.5195C409.683 11.5195 409.487 11.7246 409.487 11.9752C409.487 12.0983 409.533 12.1986 409.61 12.2851L410.7 13.3515C410.485 13.3196 410.267 13.3014 410.048 13.3014C407.792 13.3014 405.987 15.1061 405.987 17.3665C405.987 19.6269 407.806 21.4453 410.062 21.4453C412.322 21.4453 414.136 19.6269 414.136 17.3665C414.136 17.0931 413.944 16.8971 413.671 16.8971C413.407 16.8971 413.229 17.0931 413.229 17.3665C413.229 19.1256 411.821 20.5384 410.062 20.5384C408.307 20.5384 406.894 19.1256 406.894 17.3665C406.894 15.5937 408.293 14.1901 410.048 14.1901C410.344 14.1901 410.618 14.2129 410.859 14.2539L409.615 15.4844C409.533 15.5664 409.487 15.6667 409.487 15.7897C409.487 16.0403 409.683 16.2363 409.929 16.2363Z" fill="#E3E3E3"/>
</g>
<path d="M248 10.1666C246.392 10.1666 245.083 11.475 245.083 13.0833V14.8333H244.5C243.857 14.8333 243.333 15.3565 243.333 16V20.6666C243.333 21.31 243.857 21.8333 244.5 21.8333H251.5C252.143 21.8333 252.667 21.31 252.667 20.6666V16C252.667 15.3565 252.143 14.8333 251.5 14.8333H250.917V13.0833C250.917 11.475 249.608 10.1666 248 10.1666ZM251.5 16L251.501 20.6666H244.5V16H251.5ZM246.25 14.8333V13.0833C246.25 12.1185 247.035 11.3333 248 11.3333C248.965 11.3333 249.75 12.1185 249.75 13.0833V14.8333H246.25Z" fill="white"/>
</g>
</g>
</g>
<defs>
<clipPath id="clip0_1_45">
<rect width="644" height="32" fill="white"/>
</clipPath>
</defs>
</svg>
