<svg width="644" height="32" viewBox="0 0 644 32" fill="none" xmlns="http://www.w3.org/2000/svg">
<g clip-path="url(#clip0_1_45)">
<mask id="mask0_1_45" style="mask-type:luminance" maskUnits="userSpaceOnUse" x="0" y="0" width="644" height="32">
<path d="M644 0H0V31.1111H644V0Z" fill="white"/>
</mask>
<g mask="url(#mask0_1_45)">
<path d="M0 12.4445C0 8.08848 0 5.9105 0.847727 4.24674C1.59341 2.78326 2.78326 1.59341 4.24674 0.847727C5.9105 0 8.08848 0 12.4444 0H631.555C635.911 0 638.089 0 639.753 0.847727C641.217 1.59341 642.407 2.78326 643.152 4.24674C644 5.9105 644 8.08848 644 12.4444V31.1111H0V12.4445Z" fill="#25334D"/>
<mask id="mask1_1_45" style="mask-type:luminance" maskUnits="userSpaceOnUse" x="556" y="5" width="76" height="20">
<path d="M631.556 5.44446H556.889V24.1112H631.556V5.44446Z" fill="white"/>
</mask>
<g mask="url(#mask1_1_45)">
<path d="M566.229 16.6239C566.557 16.6239 566.828 16.353 566.828 16.0305V9.54144L566.783 8.58679L567.176 9.05767L568.079 10.0188C568.182 10.1349 568.33 10.1929 568.478 10.1929C568.775 10.1929 569.02 9.98007 569.02 9.6769C569.02 9.51564 568.955 9.39953 568.846 9.28988L566.686 7.20641C566.532 7.0516 566.383 7 566.229 7C566.067 7 565.926 7.0516 565.771 7.20641L563.605 9.28988C563.496 9.39953 563.431 9.51564 563.431 9.6769C563.431 9.98007 563.67 10.1929 563.966 10.1929C564.114 10.1929 564.269 10.1349 564.372 10.0188L565.275 9.05767L565.674 8.58034L565.623 9.54144V16.0305C565.623 16.353 565.893 16.6239 566.229 16.6239ZM562.509 21.7778H569.935C571.334 21.7778 572.056 21.0553 572.056 19.675V13.3343C572.056 11.9539 571.334 11.2314 569.935 11.2314H568.195V12.5151H569.851C570.438 12.5151 570.773 12.8247 570.773 13.4439V19.5589C570.773 20.1781 570.438 20.4877 569.851 20.4877H562.593C562 20.4877 561.672 20.1781 561.672 19.5589V13.4439C561.672 12.8247 562 12.5151 562.593 12.5151H564.269V11.2314H562.509C561.117 11.2314 560.389 11.9474 560.389 13.3343V19.675C560.389 21.0553 561.117 21.7778 562.509 21.7778Z" fill="#B7B7B7"/>
<path d="M593.444 20.2223C593.854 20.2223 594.186 19.8896 594.186 19.5121V15.5072H598.154C598.551 15.5072 598.889 15.1809 598.889 14.7778C598.889 14.3812 598.551 14.0485 598.154 14.0485H594.186V10.0435C594.186 9.65966 593.854 9.33337 593.444 9.33337C593.041 9.33337 592.703 9.65966 592.703 10.0435V14.0485H588.735C588.351 14.0485 588 14.3812 588 14.7778C588 15.1809 588.351 15.5072 588.735 15.5072H592.703V19.5121C592.703 19.8896 593.041 20.2223 593.444 20.2223Z" fill="#B7B7B7"/>
<path d="M617.344 18.6938H618.44V19.6675C618.44 21.0475 619.169 21.7698 620.562 21.7698H627.101C628.493 21.7698 629.222 21.0475 629.222 19.6675V13.0834C629.222 11.7034 628.493 10.9812 627.101 10.9812H626.004V10.0139C626.004 8.63387 625.276 7.91162 623.883 7.91162H617.344C615.944 7.91162 615.222 8.63387 615.222 10.0139V16.5915C615.222 17.978 615.944 18.6938 617.344 18.6938ZM617.428 17.4105C616.834 17.4105 616.505 17.1009 616.505 16.4754V10.13C616.505 9.50444 616.834 9.20135 617.428 9.20135H623.799C624.386 9.20135 624.721 9.50444 624.721 10.13V10.9812H620.562C619.169 10.9812 618.44 11.7034 618.44 13.0834V17.4105H617.428ZM620.645 20.48C620.052 20.48 619.73 20.1705 619.73 19.5514V13.1995C619.73 12.5804 620.052 12.2709 620.645 12.2709H627.017C627.61 12.2709 627.939 12.5804 627.939 13.1995V19.5514C627.939 20.1705 627.61 20.48 627.017 20.48H620.645Z" fill="#B7B7B7"/>
</g>
<mask id="mask2_1_45" style="mask-type:luminance" maskUnits="userSpaceOnUse" x="74" y="5" width="77" height="20">
<path d="M150.889 5.44446H74.6666V24.1112H150.889V5.44446Z" fill="white"/>
</mask>
<g mask="url(#mask2_1_45)">
<path d="M78.3463 21.3999H89.3928C90.7937 21.3999 91.5233 20.6769 91.5233 19.2952V11.4381C91.5233 10.0565 90.7937 9.33337 89.3928 9.33337H78.3463C76.9517 9.33337 76.2222 10.05 76.2222 11.4381V19.2952C76.2222 20.6769 76.9517 21.3999 78.3463 21.3999ZM78.4302 20.1152C77.8362 20.1152 77.507 19.8053 77.507 19.179V11.5543C77.507 10.928 77.8362 10.6182 78.4302 10.6182H81.3742V20.1152H78.4302ZM89.3088 10.6182C89.9028 10.6182 90.2321 10.928 90.2321 11.5543V19.179C90.2321 19.8053 89.9028 20.1152 89.3088 20.1152H82.5944V10.6182H89.3088ZM80.1088 12.9811C80.3412 12.9811 80.5349 12.781 80.5349 12.5615C80.5349 12.3419 80.3412 12.1483 80.1088 12.1483H78.7853C78.5529 12.1483 78.3592 12.3419 78.3592 12.5615C78.3592 12.781 78.5529 12.9811 78.7853 12.9811H80.1088ZM80.1088 14.7178C80.3412 14.7178 80.5349 14.5241 80.5349 14.2982C80.5349 14.0787 80.3412 13.885 80.1088 13.885H78.7853C78.5529 13.885 78.3592 14.0787 78.3592 14.2982C78.3592 14.5241 78.5529 14.7178 78.7853 14.7178H80.1088ZM80.1088 16.4481C80.3412 16.4481 80.5349 16.2608 80.5349 16.0349C80.5349 15.8154 80.3412 15.6281 80.1088 15.6281H78.7853C78.5529 15.6281 78.3592 15.8154 78.3592 16.0349C78.3592 16.2608 78.5529 16.4481 78.7853 16.4481H80.1088Z" fill="#B7B7B7"/>
<path d="M116.199 20.2952L111.471 15.6711C111.307 15.507 111.222 15.3247 111.222 15.112C111.222 14.8994 111.307 14.7049 111.477 14.5469L116.205 9.92889C116.339 9.79521 116.509 9.72229 116.703 9.72229C117.11 9.72229 117.426 10.0383 117.426 10.4393C117.426 10.6337 117.347 10.8221 117.207 10.9619L112.954 15.106L117.207 19.2622C117.347 19.402 117.426 19.5843 117.426 19.7848C117.426 20.1858 117.11 20.5018 116.703 20.5018C116.509 20.5018 116.339 20.4289 116.199 20.2952Z" fill="#B7B7B7"/>
<path d="M139.556 20.5018C139.757 20.5018 139.921 20.4289 140.061 20.2952L144.788 15.6772C144.952 15.507 145.037 15.3308 145.037 15.112C145.037 14.8994 144.958 14.711 144.788 14.553L140.061 9.92889C139.921 9.79521 139.757 9.72229 139.556 9.72229C139.149 9.72229 138.833 10.0383 138.833 10.4393C138.833 10.6337 138.918 10.8221 139.052 10.9619L143.312 15.1181L139.052 19.2622C138.912 19.4081 138.833 19.5843 138.833 19.7848C138.833 20.1858 139.149 20.5018 139.556 20.5018Z" fill="#5A5A5A"/>
</g>
<mask id="mask3_1_45" style="mask-type:luminance" maskUnits="userSpaceOnUse" x="15" y="10" width="41" height="11">
<path d="M55.9999 10.8889H15.5555V20.2222H55.9999V10.8889Z" fill="white"/>
</mask>
<g mask="url(#mask3_1_45)">
<path d="M20.2222 20.2223C22.7995 20.2223 24.8889 18.1329 24.8889 15.5556C24.8889 12.9783 22.7995 10.8889 20.2222 10.8889C17.6449 10.8889 15.5555 12.9783 15.5555 15.5556C15.5555 18.1329 17.6449 20.2223 20.2222 20.2223Z" fill="#ED6A5E"/>
<path d="M20.2222 19.8334C22.5848 19.8334 24.5 17.9182 24.5 15.5556C24.5 13.193 22.5848 11.2778 20.2222 11.2778C17.8597 11.2778 15.9444 13.193 15.9444 15.5556C15.9444 17.9182 17.8597 19.8334 20.2222 19.8334Z" stroke="black" stroke-opacity="0.1" stroke-width="0.777778"/>
<path d="M35.7778 20.2223C38.3551 20.2223 40.4445 18.1329 40.4445 15.5556C40.4445 12.9783 38.3551 10.8889 35.7778 10.8889C33.2005 10.8889 31.1111 12.9783 31.1111 15.5556C31.1111 18.1329 33.2005 20.2223 35.7778 20.2223Z" fill="#F4BD50"/>
<path d="M35.7778 19.8334C38.1404 19.8334 40.0556 17.9182 40.0556 15.5556C40.0556 13.193 38.1404 11.2778 35.7778 11.2778C33.4153 11.2778 31.5 13.193 31.5 15.5556C31.5 17.9182 33.4153 19.8334 35.7778 19.8334Z" stroke="black" stroke-opacity="0.1" stroke-width="0.777778"/>
<path d="M51.3333 20.2223C53.9106 20.2223 56 18.1329 56 15.5556C56 12.9783 53.9106 10.8889 51.3333 10.8889C48.756 10.8889 46.6666 12.9783 46.6666 15.5556C46.6666 18.1329 48.756 20.2223 51.3333 20.2223Z" fill="#61C454"/>
<path d="M51.3333 19.8334C53.6959 19.8334 55.6111 17.9182 55.6111 15.5556C55.6111 13.193 53.6959 11.2778 51.3333 11.2778C48.9708 11.2778 47.0555 13.193 47.0555 15.5556C47.0555 17.9182 48.9708 19.8334 51.3333 19.8334Z" stroke="black" stroke-opacity="0.1" stroke-width="0.777778"/>
</g>
<path d="M220.889 21.7778C221.005 21.7778 221.178 21.7388 221.339 21.6478C225.046 19.6141 226.333 18.672 226.333 16.3069V11.4014C226.333 10.6217 226.031 10.3423 225.387 10.0629C224.673 9.75756 222.272 8.9129 221.571 8.6725C221.359 8.60102 221.108 8.55554 220.889 8.55554C220.67 8.55554 220.419 8.61402 220.207 8.6725C219.505 8.87391 217.105 9.76406 216.39 10.0629C215.747 10.3358 215.444 10.6217 215.444 11.4014V16.3069C215.444 18.672 216.738 19.6011 220.432 21.6478C220.599 21.7388 220.773 21.7778 220.889 21.7778ZM221.236 9.86802C222.079 10.2059 223.914 10.8621 224.879 11.2065C225.059 11.278 225.104 11.3754 225.104 11.6093V16.0665C225.104 17.9703 224.158 18.4836 221.256 20.2509C221.075 20.3613 220.985 20.4003 220.895 20.4003V9.79655C220.985 9.79655 221.082 9.81604 221.236 9.86802Z" fill="#B7B7B7"/>
<mask id="mask4_1_45" style="mask-type:luminance" maskUnits="userSpaceOnUse" x="234" y="4" width="186" height="23">
<path d="M420 4.66663H234.111V26.4444H420V4.66663Z" fill="white"/>
</mask>
<g mask="url(#mask4_1_45)">
<path d="M234 12.2C234 9.67976 234 8.41964 234.539 7.45704C235.012 6.61031 235.767 5.9219 236.696 5.49047C237.752 5 239.135 5 241.901 5H412.099C414.865 5 416.248 5 417.304 5.49047C418.233 5.9219 418.988 6.61031 419.461 7.45704C420 8.41964 420 9.67976 420 12.2V18.8C420 21.3202 420 22.5804 419.461 23.543C418.988 24.3896 418.233 25.0781 417.304 25.5096C416.248 26 414.865 26 412.099 26H241.901C239.135 26 237.752 26 236.696 25.5096C235.767 25.0781 235.012 24.3896 234.539 23.543C234 22.5804 234 21.3202 234 18.8V12.2Z" fill="#3C5175"/>
<path d="M268.819 20L267.335 14.5455H268.865L269.71 18.2102H269.76L270.641 14.5455H272.143L273.038 18.1889H273.084L273.915 14.5455H275.442L273.961 20H272.36L271.422 16.5696H271.355L270.417 20H268.819ZM277.325 20L275.841 14.5455H277.371L278.216 18.2102H278.266L279.147 14.5455H280.649L281.544 18.1889H281.59L282.421 14.5455H283.948L282.467 20H280.865L279.928 16.5696H279.86L278.923 20H277.325ZM285.831 20L284.346 14.5455H285.877L286.722 18.2102H286.772L287.653 14.5455H289.155L290.05 18.1889H290.096L290.927 14.5455H292.454L290.973 20H289.371L288.434 16.5696H288.366L287.429 20H285.831ZM293.403 20.0923C293.168 20.0923 292.967 20.0095 292.799 19.8438C292.633 19.6757 292.55 19.4744 292.55 19.2401C292.55 19.008 292.633 18.8092 292.799 18.6435C292.967 18.4777 293.168 18.3949 293.403 18.3949C293.63 18.3949 293.829 18.4777 293.999 18.6435C294.17 18.8092 294.255 19.008 294.255 19.2401C294.255 19.3963 294.215 19.5395 294.134 19.6697C294.056 19.7976 293.953 19.9006 293.825 19.9787C293.697 20.0545 293.557 20.0923 293.403 20.0923ZM295.497 20V14.5455H296.939V15.5078H297.003C297.116 15.1882 297.306 14.9361 297.571 14.7514C297.836 14.5668 298.153 14.4744 298.523 14.4744C298.897 14.4744 299.215 14.5679 299.478 14.755C299.741 14.9396 299.916 15.1906 300.003 15.5078H300.06C300.171 15.1953 300.373 14.9455 300.664 14.7585C300.957 14.5691 301.304 14.4744 301.704 14.4744C302.213 14.4744 302.626 14.6366 302.944 14.9609C303.263 15.2829 303.423 15.7398 303.423 16.3317V20H301.914V16.63C301.914 16.3269 301.833 16.0997 301.672 15.9482C301.511 15.7966 301.31 15.7209 301.069 15.7209C300.794 15.7209 300.58 15.8085 300.426 15.9837C300.272 16.1565 300.195 16.3849 300.195 16.669V20H298.729V16.598C298.729 16.3305 298.652 16.1174 298.498 15.9588C298.346 15.8002 298.146 15.7209 297.898 15.7209C297.729 15.7209 297.578 15.7635 297.443 15.8487C297.31 15.9316 297.205 16.0488 297.127 16.2003C297.049 16.3494 297.01 16.5246 297.01 16.7259V20H295.497ZM306.173 20.103C305.825 20.103 305.515 20.0426 305.243 19.9219C304.971 19.7988 304.755 19.6177 304.597 19.3786C304.441 19.1371 304.362 18.8364 304.362 18.4766C304.362 18.1735 304.418 17.919 304.529 17.7131C304.641 17.5071 304.792 17.3414 304.984 17.2159C305.176 17.0904 305.393 16.9957 305.637 16.9318C305.883 16.8679 306.142 16.8229 306.411 16.7969C306.729 16.7637 306.984 16.733 307.178 16.7045C307.373 16.6738 307.513 16.6288 307.601 16.5696C307.689 16.5104 307.732 16.4228 307.732 16.3068V16.2855C307.732 16.0606 307.661 15.8866 307.519 15.7635C307.38 15.6404 307.181 15.5788 306.923 15.5788C306.651 15.5788 306.434 15.6392 306.273 15.7599C306.112 15.8783 306.005 16.0275 305.953 16.2074L304.554 16.0938C304.625 15.7623 304.765 15.4759 304.973 15.2344C305.182 14.9905 305.45 14.8035 305.779 14.6733C306.111 14.5407 306.494 14.4744 306.93 14.4744C307.233 14.4744 307.523 14.5099 307.8 14.581C308.079 14.652 308.327 14.7621 308.542 14.9112C308.76 15.0604 308.932 15.2521 309.057 15.4865C309.182 15.7185 309.245 15.9967 309.245 16.321V20H307.811V19.2436H307.768C307.68 19.4141 307.563 19.5644 307.416 19.6946C307.27 19.8224 307.093 19.9231 306.887 19.9964C306.681 20.0675 306.443 20.103 306.173 20.103ZM306.607 19.0589C306.829 19.0589 307.026 19.0152 307.196 18.9276C307.367 18.8376 307.5 18.7169 307.597 18.5653C307.695 18.4138 307.743 18.2422 307.743 18.0504V17.4716C307.696 17.5024 307.631 17.5308 307.548 17.5568C307.467 17.5805 307.376 17.603 307.274 17.6243C307.173 17.6432 307.071 17.661 306.969 17.6776C306.867 17.6918 306.775 17.7048 306.692 17.7166C306.514 17.7427 306.359 17.7841 306.227 17.8409C306.094 17.8977 305.991 17.9747 305.918 18.0717C305.844 18.1664 305.808 18.2848 305.808 18.4268C305.808 18.6328 305.882 18.7902 306.031 18.8991C306.183 19.0057 306.375 19.0589 306.607 19.0589ZM311.932 16.8466V20H310.419V14.5455H311.861V15.5078H311.925C312.045 15.1906 312.248 14.9396 312.532 14.755C312.816 14.5679 313.16 14.4744 313.565 14.4744C313.944 14.4744 314.274 14.5573 314.556 14.723C314.838 14.8887 315.057 15.1255 315.213 15.4332C315.369 15.7386 315.447 16.1032 315.447 16.527V20H313.934V16.7969C313.937 16.4631 313.852 16.2027 313.679 16.0156C313.506 15.8262 313.268 15.7315 312.965 15.7315C312.761 15.7315 312.582 15.7753 312.425 15.8629C312.271 15.9505 312.151 16.0784 312.063 16.2464C311.978 16.4122 311.934 16.6122 311.932 16.8466ZM318.01 18.4304L318.014 16.6158H318.234L319.981 14.5455H321.718L319.37 17.2869H319.012L318.01 18.4304ZM316.64 20V12.7273H318.152V20H316.64ZM320.049 20L318.444 17.6243L319.452 16.5554L321.821 20H320.049ZM322.46 20V14.5455H323.973V20H322.46ZM323.22 13.8423C322.995 13.8423 322.802 13.7678 322.641 13.6186C322.482 13.4671 322.403 13.286 322.403 13.0753C322.403 12.867 322.482 12.6882 322.641 12.5391C322.802 12.3875 322.995 12.3118 323.22 12.3118C323.445 12.3118 323.636 12.3875 323.795 12.5391C323.956 12.6882 324.037 12.867 324.037 13.0753C324.037 13.286 323.956 13.4671 323.795 13.6186C323.636 13.7678 323.445 13.8423 323.22 13.8423ZM325.184 20V14.5455H326.651V15.4972H326.708C326.807 15.1586 326.974 14.9029 327.209 14.7301C327.443 14.5549 327.713 14.4673 328.018 14.4673C328.094 14.4673 328.176 14.4721 328.263 14.4815C328.351 14.491 328.428 14.504 328.494 14.5206V15.8629C328.423 15.8416 328.325 15.8227 328.199 15.8061C328.074 15.7895 327.959 15.7812 327.855 15.7812C327.632 15.7812 327.434 15.8298 327.258 15.9268C327.086 16.0215 326.948 16.1541 326.846 16.3246C326.747 16.495 326.697 16.6915 326.697 16.9141V20H325.184ZM330.675 20.103C330.327 20.103 330.017 20.0426 329.745 19.9219C329.473 19.7988 329.257 19.6177 329.099 19.3786C328.942 19.1371 328.864 18.8364 328.864 18.4766C328.864 18.1735 328.92 17.919 329.031 17.7131C329.143 17.5071 329.294 17.3414 329.486 17.2159C329.678 17.0904 329.895 16.9957 330.139 16.9318C330.385 16.8679 330.643 16.8229 330.913 16.7969C331.231 16.7637 331.486 16.733 331.68 16.7045C331.875 16.6738 332.015 16.6288 332.103 16.5696C332.191 16.5104 332.234 16.4228 332.234 16.3068V16.2855C332.234 16.0606 332.163 15.8866 332.021 15.7635C331.882 15.6404 331.683 15.5788 331.425 15.5788C331.152 15.5788 330.936 15.6392 330.775 15.7599C330.614 15.8783 330.507 16.0275 330.455 16.2074L329.056 16.0938C329.127 15.7623 329.267 15.4759 329.475 15.2344C329.683 14.9905 329.952 14.8035 330.281 14.6733C330.613 14.5407 330.996 14.4744 331.432 14.4744C331.735 14.4744 332.025 14.5099 332.302 14.581C332.581 14.652 332.829 14.7621 333.044 14.9112C333.262 15.0604 333.433 15.2521 333.559 15.4865C333.684 15.7185 333.747 15.9967 333.747 16.321V20H332.313V19.2436H332.27C332.182 19.4141 332.065 19.5644 331.918 19.6946C331.772 19.8224 331.595 19.9231 331.389 19.9964C331.183 20.0675 330.945 20.103 330.675 20.103ZM331.109 19.0589C331.331 19.0589 331.528 19.0152 331.698 18.9276C331.869 18.8376 332.002 18.7169 332.099 18.5653C332.196 18.4138 332.245 18.2422 332.245 18.0504V17.4716C332.198 17.5024 332.133 17.5308 332.05 17.5568C331.969 17.5805 331.878 17.603 331.776 17.6243C331.674 17.6432 331.573 17.661 331.471 17.6776C331.369 17.6918 331.277 17.7048 331.194 17.7166C331.016 17.7427 330.861 17.7841 330.729 17.8409C330.596 17.8977 330.493 17.9747 330.42 18.0717C330.346 18.1664 330.31 18.2848 330.31 18.4268C330.31 18.6328 330.384 18.7902 330.533 18.8991C330.685 19.0057 330.877 19.0589 331.109 19.0589ZM337.822 14.5455V15.6818H334.537V14.5455H337.822ZM335.283 13.2386H336.796V18.3239C336.796 18.4635 336.817 18.5724 336.86 18.6506C336.902 18.7263 336.962 18.7796 337.037 18.8104C337.115 18.8411 337.205 18.8565 337.307 18.8565C337.378 18.8565 337.449 18.8506 337.52 18.8388C337.591 18.8246 337.646 18.8139 337.684 18.8068L337.922 19.9325C337.846 19.9562 337.739 19.9834 337.602 20.0142C337.465 20.0473 337.298 20.0675 337.101 20.0746C336.737 20.0888 336.417 20.0402 336.142 19.929C335.87 19.8177 335.658 19.6449 335.507 19.4105C335.355 19.1761 335.281 18.8802 335.283 18.5227V13.2386ZM343.278 16.1009L341.893 16.1861C341.869 16.0677 341.818 15.9612 341.74 15.8665C341.662 15.7694 341.559 15.6925 341.431 15.6357C341.305 15.5765 341.155 15.5469 340.98 15.5469C340.746 15.5469 340.548 15.5966 340.387 15.696C340.226 15.7931 340.145 15.9233 340.145 16.0866C340.145 16.2169 340.198 16.3269 340.302 16.4169C340.406 16.5069 340.585 16.5791 340.838 16.6335L341.825 16.8324C342.355 16.9413 342.751 17.1165 343.011 17.358C343.272 17.5994 343.402 17.9167 343.402 18.3097C343.402 18.6671 343.296 18.9808 343.086 19.2507C342.877 19.5206 342.591 19.7313 342.226 19.8828C341.864 20.032 341.446 20.1065 340.973 20.1065C340.251 20.1065 339.675 19.9562 339.247 19.6555C338.821 19.3525 338.571 18.9406 338.498 18.4197L339.986 18.3416C340.031 18.5618 340.14 18.7299 340.312 18.8459C340.485 18.9595 340.707 19.0163 340.976 19.0163C341.242 19.0163 341.455 18.9654 341.616 18.8636C341.779 18.7595 341.862 18.6257 341.864 18.4624C341.862 18.325 341.804 18.2126 341.69 18.125C341.577 18.035 341.401 17.9664 341.165 17.919L340.22 17.7308C339.687 17.6243 339.291 17.4396 339.03 17.1768C338.772 16.9141 338.643 16.5791 338.643 16.1719C338.643 15.8215 338.738 15.5196 338.927 15.2663C339.119 15.013 339.388 14.8177 339.733 14.6804C340.082 14.5431 340.489 14.4744 340.955 14.4744C341.644 14.4744 342.186 14.62 342.582 14.9112C342.979 15.2024 343.211 15.599 343.278 16.1009ZM344.354 20V14.5455H345.867V20H344.354ZM345.114 13.8423C344.889 13.8423 344.696 13.7678 344.536 13.6186C344.377 13.4671 344.298 13.286 344.298 13.0753C344.298 12.867 344.377 12.6882 344.536 12.5391C344.696 12.3875 344.889 12.3118 345.114 12.3118C345.339 12.3118 345.531 12.3875 345.69 12.5391C345.851 12.6882 345.931 12.867 345.931 13.0753C345.931 13.286 345.851 13.4671 345.69 13.6186C345.531 13.7678 345.339 13.8423 345.114 13.8423ZM348.592 16.8466V20H347.079V14.5455H348.521V15.5078H348.585C348.705 15.1906 348.908 14.9396 349.192 14.755C349.476 14.5679 349.82 14.4744 350.225 14.4744C350.604 14.4744 350.934 14.5573 351.216 14.723C351.498 14.8887 351.717 15.1255 351.873 15.4332C352.029 15.7386 352.107 16.1032 352.107 16.527V20H350.595V16.7969C350.597 16.4631 350.512 16.2027 350.339 16.0156C350.166 15.8262 349.928 15.7315 349.625 15.7315C349.422 15.7315 349.242 15.7753 349.085 15.8629C348.932 15.9505 348.811 16.0784 348.723 16.2464C348.638 16.4122 348.594 16.6122 348.592 16.8466ZM355.757 22.1591C355.267 22.1591 354.847 22.0916 354.496 21.9567C354.148 21.8241 353.871 21.643 353.665 21.4134C353.46 21.1837 353.326 20.9257 353.264 20.6392L354.663 20.451C354.706 20.5599 354.773 20.6617 354.866 20.7564C354.958 20.8511 355.08 20.9268 355.232 20.9837C355.385 21.0429 355.572 21.0724 355.793 21.0724C356.122 21.0724 356.393 20.992 356.606 20.831C356.821 20.6723 356.929 20.406 356.929 20.032V19.0341H356.865C356.799 19.1856 356.699 19.3288 356.567 19.4638C356.434 19.5987 356.264 19.7088 356.055 19.794C355.847 19.8793 355.598 19.9219 355.31 19.9219C354.9 19.9219 354.527 19.8272 354.191 19.6378C353.857 19.446 353.591 19.1536 353.392 18.7607C353.196 18.3653 353.097 17.8658 353.097 17.2621C353.097 16.6442 353.198 16.1281 353.399 15.7138C353.6 15.2995 353.868 14.9893 354.202 14.7834C354.538 14.5774 354.906 14.4744 355.306 14.4744C355.612 14.4744 355.867 14.5265 356.073 14.6307C356.279 14.7325 356.445 14.8603 356.57 15.0142C356.698 15.1657 356.796 15.3149 356.865 15.4616H356.922V14.5455H358.424V20.0533C358.424 20.5173 358.31 20.9055 358.083 21.218C357.856 21.5305 357.541 21.7649 357.138 21.9212C356.738 22.0798 356.278 22.1591 355.757 22.1591ZM355.789 18.7855C356.033 18.7855 356.239 18.7251 356.407 18.6044C356.577 18.4813 356.708 18.3061 356.798 18.0788C356.89 17.8492 356.936 17.5746 356.936 17.255C356.936 16.9354 356.891 16.6584 356.801 16.424C356.711 16.1873 356.581 16.0038 356.411 15.8736C356.24 15.7434 356.033 15.6783 355.789 15.6783C355.54 15.6783 355.331 15.7457 355.161 15.8807C354.99 16.0133 354.861 16.1979 354.773 16.4347C354.686 16.6714 354.642 16.9448 354.642 17.255C354.642 17.5698 354.686 17.8421 354.773 18.0717C354.863 18.299 354.992 18.4754 355.161 18.6009C355.331 18.724 355.54 18.7855 355.789 18.7855ZM361.141 16.8466V20H359.628V12.7273H361.098V15.5078H361.162C361.285 15.1858 361.484 14.9337 361.759 14.7514C362.033 14.5668 362.378 14.4744 362.792 14.4744C363.171 14.4744 363.501 14.5573 363.783 14.723C364.067 14.8864 364.287 15.1219 364.443 15.4297C364.602 15.7351 364.68 16.1009 364.678 16.527V20H363.165V16.7969C363.167 16.4607 363.082 16.1991 362.909 16.0121C362.739 15.825 362.5 15.7315 362.192 15.7315C361.986 15.7315 361.804 15.7753 361.645 15.8629C361.489 15.9505 361.366 16.0784 361.276 16.2464C361.188 16.4122 361.143 16.6122 361.141 16.8466ZM366.752 20.0923C366.518 20.0923 366.317 20.0095 366.149 19.8438C365.983 19.6757 365.9 19.4744 365.9 19.2401C365.9 19.008 365.983 18.8092 366.149 18.6435C366.317 18.4777 366.518 18.3949 366.752 18.3949C366.98 18.3949 367.178 18.4777 367.349 18.6435C367.519 18.8092 367.605 19.008 367.605 19.2401C367.605 19.3963 367.564 19.5395 367.484 19.6697C367.406 19.7976 367.303 19.9006 367.175 19.9787C367.047 20.0545 366.906 20.0923 366.752 20.0923ZM371.748 14.5455V15.6818H368.463V14.5455H371.748ZM369.209 13.2386H370.722V18.3239C370.722 18.4635 370.743 18.5724 370.786 18.6506C370.828 18.7263 370.887 18.7796 370.963 18.8104C371.041 18.8411 371.131 18.8565 371.233 18.8565C371.304 18.8565 371.375 18.8506 371.446 18.8388C371.517 18.8246 371.571 18.8139 371.609 18.8068L371.847 19.9325C371.772 19.9562 371.665 19.9834 371.528 20.0142C371.39 20.0473 371.223 20.0675 371.027 20.0746C370.662 20.0888 370.343 20.0402 370.068 19.929C369.796 19.8177 369.584 19.6449 369.433 19.4105C369.281 19.1761 369.206 18.8802 369.209 18.5227V13.2386ZM375.161 20.1065C374.599 20.1065 374.116 19.9929 373.712 19.7656C373.309 19.536 372.999 19.2116 372.781 18.7926C372.563 18.3712 372.455 17.8729 372.455 17.2976C372.455 16.7365 372.563 16.2441 372.781 15.8203C372.999 15.3965 373.306 15.0663 373.701 14.8295C374.099 14.5928 374.565 14.4744 375.1 14.4744C375.46 14.4744 375.795 14.5324 376.105 14.6484C376.418 14.7621 376.69 14.9337 376.922 15.1634C377.156 15.393 377.339 15.6818 377.469 16.0298C377.599 16.3755 377.664 16.7803 377.664 17.2443V17.6598H373.058V16.7223H376.24C376.24 16.5045 376.193 16.3116 376.098 16.1435C376.003 15.9754 375.872 15.844 375.704 15.7493C375.538 15.6522 375.345 15.6037 375.125 15.6037C374.895 15.6037 374.692 15.657 374.514 15.7635C374.339 15.8677 374.202 16.0085 374.102 16.1861C374.003 16.3613 373.952 16.5566 373.95 16.772V17.6634C373.95 17.9332 373.999 18.1664 374.099 18.3629C374.201 18.5594 374.344 18.7109 374.528 18.8175C374.713 18.924 374.932 18.9773 375.185 18.9773C375.353 18.9773 375.507 18.9536 375.647 18.9062C375.787 18.8589 375.906 18.7879 376.006 18.6932C376.105 18.5985 376.181 18.4825 376.233 18.3452L377.632 18.4375C377.561 18.7737 377.415 19.0672 377.195 19.3182C376.978 19.5668 376.696 19.7609 376.35 19.9006C376.007 20.0379 375.61 20.1065 375.161 20.1065ZM381.116 20.1065C380.557 20.1065 380.076 19.9882 379.674 19.7514C379.274 19.5123 378.966 19.1809 378.751 18.7571C378.538 18.3333 378.431 17.8456 378.431 17.294C378.431 16.7353 378.539 16.2453 378.754 15.8239C378.972 15.4001 379.281 15.0698 379.681 14.8331C380.081 14.594 380.557 14.4744 381.109 14.4744C381.585 14.4744 382.001 14.5608 382.359 14.7337C382.716 14.9065 382.999 15.1491 383.207 15.4616C383.416 15.7741 383.531 16.1411 383.552 16.5625H382.124C382.084 16.2902 381.978 16.0713 381.805 15.9055C381.634 15.7375 381.411 15.6534 381.134 15.6534C380.899 15.6534 380.694 15.7173 380.519 15.8452C380.346 15.9706 380.211 16.1541 380.114 16.3956C380.017 16.6371 379.969 16.9295 379.969 17.2727C379.969 17.6207 380.016 17.9167 380.111 18.1605C380.208 18.4044 380.344 18.5902 380.519 18.718C380.694 18.8459 380.899 18.9098 381.134 18.9098C381.306 18.9098 381.461 18.8743 381.599 18.8033C381.738 18.7322 381.853 18.6293 381.943 18.4943C382.036 18.357 382.096 18.1925 382.124 18.0007H383.552C383.528 18.4174 383.415 18.7843 383.211 19.1016C383.01 19.4164 382.732 19.6626 382.376 19.8402C382.021 20.0178 381.601 20.1065 381.116 20.1065ZM386.033 16.8466V20H384.52V12.7273H385.991V15.5078H386.055C386.178 15.1858 386.376 14.9337 386.651 14.7514C386.926 14.5668 387.27 14.4744 387.684 14.4744C388.063 14.4744 388.394 14.5573 388.675 14.723C388.959 14.8864 389.18 15.1219 389.336 15.4297C389.494 15.7351 389.573 16.1009 389.57 16.527V20H388.057V16.7969C388.06 16.4607 387.974 16.1991 387.802 16.0121C387.631 15.825 387.392 15.7315 387.084 15.7315C386.878 15.7315 386.696 15.7753 386.537 15.8629C386.381 15.9505 386.258 16.0784 386.168 16.2464C386.081 16.4122 386.036 16.6122 386.033 16.8466Z" fill="white"/>
<mask id="mask5_1_45" style="mask-type:luminance" maskUnits="userSpaceOnUse" x="405" y="11" width="11" height="11">
<path d="M415.117 11H405.006V21.8889H415.117V11Z" fill="white"/>
</mask>
<g mask="url(#mask5_1_45)">
<path d="M409.929 16.2363C410.062 16.2363 410.166 16.1953 410.248 16.1087L412.117 14.2265C412.217 14.1263 412.263 14.0169 412.263 13.8893C412.263 13.7663 412.213 13.6478 412.117 13.5566L410.248 11.6562C410.166 11.5651 410.062 11.5195 409.929 11.5195C409.683 11.5195 409.487 11.7246 409.487 11.9752C409.487 12.0983 409.533 12.1986 409.61 12.2851L410.7 13.3515C410.485 13.3196 410.267 13.3014 410.048 13.3014C407.792 13.3014 405.987 15.1061 405.987 17.3665C405.987 19.6269 407.806 21.4453 410.062 21.4453C412.322 21.4453 414.136 19.6269 414.136 17.3665C414.136 17.0931 413.944 16.8971 413.671 16.8971C413.407 16.8971 413.229 17.0931 413.229 17.3665C413.229 19.1256 411.821 20.5384 410.062 20.5384C408.307 20.5384 406.894 19.1256 406.894 17.3665C406.894 15.5937 408.293 14.1901 410.048 14.1901C410.344 14.1901 410.618 14.2129 410.859 14.2539L409.615 15.4844C409.533 15.5664 409.487 15.6667 409.487 15.7897C409.487 16.0403 409.683 16.2363 409.929 16.2363Z" fill="#E3E3E3"/>
</g>
<path d="M248 10.1666C246.392 10.1666 245.083 11.475 245.083 13.0833V14.8333H244.5C243.857 14.8333 243.333 15.3565 243.333 16V20.6666C243.333 21.31 243.857 21.8333 244.5 21.8333H251.5C252.143 21.8333 252.667 21.31 252.667 20.6666V16C252.667 15.3565 252.143 14.8333 251.5 14.8333H250.917V13.0833C250.917 11.475 249.608 10.1666 248 10.1666ZM251.5 16L251.501 20.6666H244.5V16H251.5ZM246.25 14.8333V13.0833C246.25 12.1185 247.035 11.3333 248 11.3333C248.965 11.3333 249.75 12.1185 249.75 13.0833V14.8333H246.25Z" fill="white"/>
</g>
</g>
</g>
<defs>
<clipPath id="clip0_1_45">
<rect width="644" height="32" fill="white"/>
</clipPath>
</defs>
</svg>
