<svg width="1075" height="672" viewBox="0 0 1075 672" fill="none" xmlns="http://www.w3.org/2000/svg">
<g clip-path="url(#clip0_16_175)">
<g clip-path="url(#clip1_16_175)">
<mask id="mask0_16_175" style="mask-type:luminance" maskUnits="userSpaceOnUse" x="0" y="0" width="1075" height="672">
<path d="M1075 0H0V672H1075V0Z" fill="white"/>
<g clip-path="url(#clip2_16_175)">
<g clip-path="url(#clip3_16_175)">
<g clip-path="url(#clip4_16_175)">
<g clip-path="url(#clip5_16_175)">
<g clip-path="url(#clip6_16_175)">
<g clip-path="url(#clip7_16_175)">
<path d="M18.0418 260.369H21.0104L68.8381 321.402L117.655 260.369H120.624V374.682H110.729V297.153C110.729 293.854 111.168 288.466 112.048 280.988C106.221 289.126 99.019 298.583 90.443 309.36C81.867 320.137 74.7204 328.55 69.003 334.598C55.2594 319.092 43.7698 305.731 34.5341 294.514C32.8849 292.425 31.4555 290.5 30.2461 288.741C29.0367 286.981 27.8272 285.002 26.6178 282.802C26.6178 282.473 26.8377 283.957 27.2775 287.256C27.7173 290.555 27.9372 293.085 27.9372 294.844V374.682H18.0418V260.369ZM205.889 376.001C203.8 374.352 202.118 372.537 200.843 370.558C199.589 368.578 198.413 365.994 197.313 362.805C195.114 367.094 191.838 370.415 187.484 372.768C183.152 375.144 177.907 376.331 171.75 376.331C163.064 376.331 156.104 374.022 150.871 369.403C145.659 364.784 143.053 358.516 143.053 350.598C143.053 342.241 145.989 335.753 151.86 331.134C157.754 326.515 166.088 324.206 176.863 324.206H195.994V318.267C195.994 311.669 194.564 306.776 191.706 303.587C188.847 300.397 184.449 298.803 178.512 298.803C174.114 298.803 169.606 299.595 164.988 301.178C160.37 302.784 156.247 304.961 152.619 307.71L148.166 300.452C152.234 297.043 156.929 294.426 162.251 292.601C167.594 290.797 173.069 289.895 178.677 289.895C187.583 289.895 194.345 292.172 198.962 296.725C203.58 301.299 205.889 307.875 205.889 316.453V350.928C205.889 359.396 208.033 365.939 212.321 370.558L205.889 376.001ZM171.915 367.424C179.282 367.424 185.131 365.389 189.463 361.32C193.817 357.252 195.994 351.973 195.994 345.485V333.113H179.172C169.826 333.113 163.119 334.455 159.051 337.138C154.983 339.843 152.949 344.275 152.949 350.433C152.949 355.932 154.598 360.133 157.897 363.036C161.195 365.961 165.868 367.424 171.915 367.424ZM231.089 316.453C231.089 307.985 228.846 301.497 224.361 296.988L230.595 290.885C235.432 294.294 238.522 299.243 239.863 305.731C243.47 300.562 247.527 296.736 252.035 294.25C256.565 291.787 262.007 290.555 268.362 290.555C276.96 290.555 283.645 292.865 288.417 297.483C293.188 302.102 295.519 308.755 295.409 317.443L294.915 374.682H285.382L285.514 319.257C285.514 306.061 279.522 299.463 267.537 299.463C261.93 299.463 257.18 300.804 253.288 303.488C249.396 306.193 245.295 310.46 240.985 316.288V374.682H231.089V316.453ZM355.277 330.144L387.437 374.682H376.552L349.339 337.567C348.13 336.137 346.426 335.093 344.227 334.433C342.028 333.773 339.719 333.443 337.3 333.443H330.043V374.682H320.148V254.925H330.043V324.536H335.981C339.829 324.536 342.885 324.426 345.15 324.206C347.393 323.986 349.394 323.436 351.153 322.556C354.892 320.687 358.168 317.641 360.983 313.418C363.776 309.173 365.92 304.873 367.415 300.518C368.888 296.186 369.625 293.194 369.625 291.545H378.696C378.586 295.284 377.244 300.035 374.671 305.797C372.077 311.581 368.965 316.838 365.337 321.567C361.709 326.295 358.355 329.154 355.277 330.144ZM403.104 374.682V292.04H413V374.682H403.104ZM407.722 281.483C405.853 281.483 404.237 280.79 402.873 279.404C401.488 278.041 400.795 276.424 400.795 274.555C400.795 272.575 401.488 270.893 402.873 269.507C404.237 268.144 405.853 267.462 407.722 267.462C409.701 267.462 411.383 268.144 412.769 269.507C414.132 270.893 414.814 272.575 414.814 274.555C414.814 276.424 414.132 278.041 412.769 279.404C411.383 280.79 409.701 281.483 407.722 281.483ZM472.867 290.555C476.165 290.555 479.464 291.05 482.762 292.04V301.277C479.574 300.507 476.385 300.123 473.197 300.123C467.589 300.123 463.026 301.497 459.508 304.246C455.99 306.996 452.856 310.9 450.107 315.958V374.682H440.212V316.948C440.212 308.26 437.903 301.882 433.285 297.813L439.882 291.215C441.861 292.425 443.73 294.239 445.489 296.659C447.249 299.078 448.513 301.772 449.283 304.741C452.361 299.683 455.44 296.219 458.518 294.349C462.367 291.82 467.149 290.555 472.867 290.555ZM555.493 376.001C553.404 374.352 551.722 372.537 550.447 370.558C549.193 368.578 548.017 365.994 546.917 362.805C544.718 367.094 541.442 370.415 537.088 372.768C532.756 375.144 527.511 376.331 521.354 376.331C512.668 376.331 505.708 374.022 500.475 369.403C495.263 364.784 492.657 358.516 492.657 350.598C492.657 342.241 495.593 335.753 501.464 331.134C507.358 326.515 515.692 324.206 526.467 324.206H545.598V318.267C545.598 311.669 544.168 306.776 541.31 303.587C538.451 300.397 534.053 298.803 528.116 298.803C523.718 298.803 519.199 299.595 514.559 301.178C509.963 302.784 505.84 304.961 502.19 307.71L497.77 300.452C501.816 297.043 506.511 294.426 511.855 292.601C517.198 290.797 522.673 289.895 528.281 289.895C537.187 289.895 543.949 292.172 548.566 296.725C553.184 301.299 555.493 307.875 555.493 316.453V350.928C555.493 359.396 557.637 365.939 561.925 370.558L555.493 376.001ZM521.519 367.424C528.886 367.424 534.735 365.389 539.067 361.32C543.421 357.252 545.598 351.973 545.598 345.485V333.113H528.776C519.43 333.113 512.723 334.455 508.655 337.138C504.587 339.843 502.553 344.275 502.553 350.433C502.553 355.932 504.202 360.133 507.501 363.036C510.799 365.961 515.472 367.424 521.519 367.424ZM603.783 376.991C595.866 376.991 589.962 374.902 586.07 370.723C582.156 366.544 580.199 359.946 580.199 350.928V271.586H590.094V292.205H615.987V301.112H590.094V350.928C590.094 357.856 591.391 362.442 593.986 364.685C596.559 366.951 599.769 368.084 603.618 368.084C605.927 368.084 607.851 367.941 609.39 367.655C610.929 367.391 612.633 366.709 614.503 365.609L618.956 373.197C614.887 375.726 609.83 376.991 603.783 376.991ZM714.941 378.476C709.443 378.476 703.891 377.299 698.284 374.946C692.676 372.57 687.75 369.293 683.506 365.114C679.284 360.936 676.459 356.207 675.029 350.928L683.44 347.629C685.529 354.337 689.62 359.638 695.711 363.531C701.824 367.446 708.234 369.403 714.941 369.403C719.998 369.403 724.616 368.325 728.794 366.17C732.972 364.037 736.271 361.012 738.69 357.098C741.109 353.205 742.318 348.784 742.318 343.835C742.318 338.557 740.856 334.213 737.931 330.804C735.028 327.395 730.114 323.986 723.187 320.577C713.841 316.068 706.75 312.384 701.912 309.525C697.074 306.666 693.116 303.279 690.037 299.364C686.959 295.471 685.42 290.83 685.42 285.442C685.42 280.163 686.849 275.489 689.708 271.421C692.566 267.352 696.381 264.218 701.153 262.018C705.947 259.819 711.093 258.719 716.59 258.719C721.208 258.719 725.518 259.566 729.52 261.259C733.544 262.975 736.678 265.339 738.921 268.352C741.186 271.388 742.208 274.775 741.988 278.514L732.752 278.019C732.752 274.83 731.015 272.322 727.541 270.497C724.089 268.693 720.328 267.792 716.26 267.792C710.543 267.792 705.617 269.441 701.483 272.74C697.371 276.039 695.315 280.108 695.315 284.947C695.315 288.686 696.579 292.04 699.108 295.009C701.637 297.978 704.628 300.474 708.08 302.498C711.554 304.543 715.93 306.776 721.208 309.195C722.307 309.745 723.462 310.295 724.671 310.845C725.881 311.394 727.035 311.999 728.135 312.659C736.821 317.278 743 321.973 746.672 326.746C750.366 331.541 752.213 337.292 752.213 344C752.213 350.708 750.476 356.669 747.002 361.881C743.549 367.116 738.965 371.185 733.247 374.088C727.53 377.013 721.428 378.476 714.941 378.476ZM772.994 374.682V292.04H782.889V374.682H772.994ZM777.612 281.483C775.742 281.483 774.115 280.79 772.73 279.404C771.366 278.041 770.685 276.424 770.685 274.555C770.685 272.575 771.366 270.893 772.73 269.507C774.115 268.144 775.742 267.462 777.612 267.462C779.591 267.462 781.262 268.144 782.625 269.507C784.011 270.893 784.703 272.575 784.703 274.555C784.703 276.424 784.011 278.041 782.625 279.404C781.262 280.79 779.591 281.483 777.612 281.483ZM810.068 316.453C810.068 307.985 807.814 301.497 803.307 296.988L809.574 290.885C814.411 294.294 817.49 299.243 818.809 305.731C822.438 300.562 826.506 296.736 831.014 294.25C835.522 291.787 840.964 290.555 847.341 290.555C855.917 290.555 862.602 292.865 867.396 297.483C872.167 302.102 874.498 308.755 874.388 317.443L873.894 374.682H864.328L864.493 319.257C864.493 306.061 858.501 299.463 846.516 299.463C840.909 299.463 836.159 300.804 832.267 303.488C828.353 306.193 824.252 310.46 819.964 316.288V374.682H810.068V316.453ZM934.42 417.075C909.132 417.075 896.488 406.683 896.488 385.899C896.488 384.139 896.763 380.895 897.313 376.166L897.807 371.712C895.609 369.953 893.827 367.754 892.464 365.114C891.079 362.475 890.386 359.671 890.386 356.702C890.386 353.623 891.211 350.433 892.86 347.134C894.509 343.835 897.313 341.306 901.271 339.547C902.59 338.997 903.943 338.612 905.328 338.392C906.691 338.172 908.582 338.007 911.001 337.897C906.823 332.838 904.734 326.845 904.734 319.917C904.734 313.869 906.142 308.612 908.956 304.147C911.749 299.705 915.509 296.274 920.237 293.854C924.965 291.435 930.187 290.225 935.905 290.225C940.193 290.225 944.041 290.995 947.449 292.535H974.662V300.947L959.654 299.958C964.601 305.236 967.075 311.779 967.075 319.587C967.075 328.605 964.195 335.665 958.433 340.767C952.65 345.892 945.14 348.454 935.905 348.454C929.858 348.454 924.525 347.299 919.907 344.99C917.488 344.77 915.344 344.66 913.475 344.66C911.056 344.66 909.187 344.825 907.868 345.155C905.999 345.705 904.207 346.969 902.491 348.949C900.798 350.928 899.951 353.458 899.951 356.537C899.951 360.056 901.216 362.53 903.745 363.96C906.274 365.389 910.012 366.104 914.96 366.104L926.174 365.774L940.193 365.444C951.408 365.444 960.28 367.479 966.811 371.548C973.364 375.616 976.641 381.775 976.641 390.022C976.641 399.37 972.595 406.221 964.502 410.576C956.432 414.908 946.405 417.075 934.42 417.075ZM936.235 339.876C943.051 339.876 948.252 338.007 951.836 334.268C955.399 330.529 957.18 325.69 957.18 319.752C957.18 313.374 955.223 308.337 951.309 304.642C947.416 300.969 942.227 299.133 935.74 299.133C929.143 299.133 923.975 301.002 920.237 304.741C916.499 308.48 914.63 313.484 914.63 319.752C914.63 326.24 916.609 331.211 920.567 334.664C924.525 338.139 929.748 339.876 936.235 339.876ZM934.42 408.167C955.97 408.167 966.745 402.229 966.745 390.352C966.745 379.685 957.675 374.352 939.533 374.352C934.475 374.352 929.967 374.462 926.009 374.682L918.753 374.847C913.365 374.847 909.132 374.572 906.054 374.022L906.384 384.909C906.603 390.957 907.703 395.664 909.682 399.029C911.661 402.372 914.608 404.736 918.522 406.122C922.414 407.485 927.714 408.167 934.42 408.167ZM992.803 254.925H1002.7V304.246C1006.11 299.518 1010.07 296.054 1014.57 293.854C1019.08 291.655 1024.3 290.555 1030.24 290.555C1039.15 290.555 1045.82 292.887 1050.26 297.549C1054.73 302.234 1056.96 308.865 1056.96 317.443V374.682H1047.06V319.257C1047.06 313.209 1045.58 308.447 1042.61 304.972C1039.64 301.519 1035.19 299.793 1029.25 299.793C1023.97 299.793 1019.25 301.167 1015.07 303.916C1010.89 306.666 1006.77 310.79 1002.7 316.288V374.682H992.803V254.925Z" fill="black" stroke="black" stroke-width="6.06794" stroke-linejoin="round"/>
</g>
</g>
</g>
</g>
</g>
</g>
</mask>
<g mask="url(#mask0_16_175)">
<path d="M2.71794 27.7336H18.4331L271.636 350.845L530.077 27.7336H545.795V632.914H493.407V222.475C493.407 205.009 495.736 176.482 500.392 136.893C469.541 179.975 431.416 230.043 386.016 287.098C340.612 344.153 302.779 388.689 272.509 420.707C199.75 338.618 138.922 267.884 90.0291 208.502C81.2991 197.441 73.7296 187.252 67.3288 177.936C60.9254 168.62 54.5219 158.143 48.1211 146.5C48.1211 144.755 49.2844 152.614 51.611 170.077C53.9403 187.543 55.1035 200.934 55.1035 210.247V632.914H2.71794V27.7336ZM874.96 652.998C845.856 652.998 816.461 646.767 786.773 634.311C757.088 621.736 731.069 604.387 708.717 582.264C686.248 560.141 671.231 535.107 663.664 507.162L708.195 489.695C719.254 525.209 740.965 553.269 773.328 573.88C805.573 594.606 839.452 604.969 874.96 604.969C901.734 604.969 926.182 599.262 948.3 587.853C970.419 576.558 987.882 560.549 1000.69 539.824C1013.49 519.215 1019.89 495.809 1019.9 469.612C1019.9 441.666 1012.21 418.671 996.846 400.623C981.362 382.575 955.286 364.527 918.615 346.48C869.138 322.609 831.595 303.107 805.984 287.97C780.372 272.834 759.417 254.903 743.118 234.175C726.818 213.567 718.67 188.997 718.67 160.473C718.67 132.527 726.237 107.784 741.373 86.2427C756.506 64.7017 776.763 48.1083 802.14 36.4652C827.404 24.8221 854.586 18.9992 883.69 19.0019C908.137 19.0019 931.012 23.4847 952.315 32.4501C973.501 41.5324 990.092 54.0482 1002.08 70C1013.96 86.0687 1019.31 104 1018.15 123.793L969.256 121.175C969.256 104.29 960.118 91.0163 941.84 81.3522C923.448 71.805 903.482 67.0315 881.942 67.0315C851.675 67.0315 825.656 75.7631 803.888 93.2291C782.003 110.695 771.058 132.236 771.058 157.852C771.058 177.645 777.752 195.402 791.138 211.123C804.527 226.841 820.416 240.058 838.811 250.769C857.089 261.596 880.197 273.416 908.138 286.223C913.959 289.134 920.069 292.045 926.473 294.957C932.876 297.868 938.986 301.071 944.808 304.561C990.793 329.014 1023.56 353.871 1043.12 379.139C1062.56 404.521 1072.28 434.97 1072.28 470.484C1072.28 505.998 1063.14 537.551 1044.87 565.149C1026.47 592.861 1002.14 614.401 971.873 629.769C941.606 645.256 909.301 652.998 874.96 652.998Z" fill="white"/>
</g>
<g clip-path="url(#clip8_16_175)">
<g clip-path="url(#clip9_16_175)">
<g clip-path="url(#clip10_16_175)">
<g clip-path="url(#clip11_16_175)">
<g clip-path="url(#clip12_16_175)">
<g clip-path="url(#clip13_16_175)">
<path d="M18.0418 260.369H21.0104L68.8381 321.402L117.655 260.369H120.624V374.682H110.729V297.153C110.729 293.854 111.168 288.466 112.048 280.988C106.221 289.126 99.019 298.583 90.443 309.36C81.867 320.137 74.7204 328.55 69.003 334.598C55.2594 319.092 43.7698 305.731 34.5341 294.514C32.8849 292.425 31.4555 290.5 30.2461 288.741C29.0367 286.981 27.8272 285.002 26.6178 282.802C26.6178 282.473 26.8377 283.957 27.2775 287.256C27.7173 290.555 27.9372 293.085 27.9372 294.844V374.682H18.0418V260.369ZM205.889 376.001C203.8 374.352 202.118 372.537 200.843 370.558C199.589 368.578 198.413 365.994 197.313 362.805C195.114 367.094 191.838 370.415 187.484 372.768C183.152 375.144 177.907 376.331 171.75 376.331C163.064 376.331 156.104 374.022 150.871 369.403C145.659 364.784 143.053 358.516 143.053 350.598C143.053 342.241 145.989 335.753 151.86 331.134C157.754 326.515 166.088 324.206 176.863 324.206H195.994V318.267C195.994 311.669 194.564 306.776 191.706 303.587C188.847 300.397 184.449 298.803 178.512 298.803C174.114 298.803 169.606 299.595 164.988 301.178C160.37 302.784 156.247 304.961 152.619 307.71L148.166 300.452C152.234 297.043 156.929 294.426 162.251 292.601C167.594 290.797 173.069 289.895 178.677 289.895C187.583 289.895 194.345 292.172 198.962 296.725C203.58 301.299 205.889 307.875 205.889 316.453V350.928C205.889 359.396 208.033 365.939 212.321 370.558L205.889 376.001ZM171.915 367.424C179.282 367.424 185.131 365.389 189.463 361.32C193.817 357.252 195.994 351.973 195.994 345.485V333.113H179.172C169.826 333.113 163.119 334.455 159.051 337.138C154.983 339.843 152.949 344.275 152.949 350.433C152.949 355.932 154.598 360.133 157.897 363.036C161.195 365.961 165.868 367.424 171.915 367.424ZM231.089 316.453C231.089 307.985 228.846 301.497 224.361 296.988L230.595 290.885C235.432 294.294 238.522 299.243 239.863 305.731C243.47 300.562 247.527 296.736 252.035 294.25C256.565 291.787 262.007 290.555 268.362 290.555C276.96 290.555 283.645 292.865 288.417 297.483C293.188 302.102 295.519 308.755 295.409 317.443L294.915 374.682H285.382L285.514 319.257C285.514 306.061 279.522 299.463 267.537 299.463C261.93 299.463 257.18 300.804 253.288 303.488C249.396 306.193 245.295 310.46 240.985 316.288V374.682H231.089V316.453ZM355.277 330.144L387.437 374.682H376.552L349.339 337.567C348.13 336.137 346.426 335.093 344.227 334.433C342.028 333.773 339.719 333.443 337.3 333.443H330.043V374.682H320.148V254.925H330.043V324.536H335.981C339.829 324.536 342.885 324.426 345.15 324.206C347.393 323.986 349.394 323.436 351.153 322.556C354.892 320.687 358.168 317.641 360.983 313.418C363.776 309.173 365.92 304.873 367.415 300.518C368.888 296.186 369.625 293.194 369.625 291.545H378.696C378.586 295.284 377.244 300.035 374.671 305.797C372.077 311.581 368.965 316.838 365.337 321.567C361.709 326.295 358.355 329.154 355.277 330.144ZM403.104 374.682V292.04H413V374.682H403.104ZM407.722 281.483C405.853 281.483 404.237 280.79 402.873 279.404C401.488 278.041 400.795 276.424 400.795 274.555C400.795 272.575 401.488 270.893 402.873 269.507C404.237 268.144 405.853 267.462 407.722 267.462C409.701 267.462 411.383 268.144 412.769 269.507C414.132 270.893 414.814 272.575 414.814 274.555C414.814 276.424 414.132 278.041 412.769 279.404C411.383 280.79 409.701 281.483 407.722 281.483ZM472.867 290.555C476.165 290.555 479.464 291.05 482.762 292.04V301.277C479.574 300.507 476.385 300.123 473.197 300.123C467.589 300.123 463.026 301.497 459.508 304.246C455.99 306.996 452.856 310.9 450.107 315.958V374.682H440.212V316.948C440.212 308.26 437.903 301.882 433.285 297.813L439.882 291.215C441.861 292.425 443.73 294.239 445.489 296.659C447.249 299.078 448.513 301.772 449.283 304.741C452.361 299.683 455.44 296.219 458.518 294.349C462.367 291.82 467.149 290.555 472.867 290.555ZM555.493 376.001C553.404 374.352 551.722 372.537 550.447 370.558C549.193 368.578 548.017 365.994 546.917 362.805C544.718 367.094 541.442 370.415 537.088 372.768C532.756 375.144 527.511 376.331 521.354 376.331C512.668 376.331 505.708 374.022 500.475 369.403C495.263 364.784 492.657 358.516 492.657 350.598C492.657 342.241 495.593 335.753 501.464 331.134C507.358 326.515 515.692 324.206 526.467 324.206H545.598V318.267C545.598 311.669 544.168 306.776 541.31 303.587C538.451 300.397 534.053 298.803 528.116 298.803C523.718 298.803 519.199 299.595 514.559 301.178C509.963 302.784 505.84 304.961 502.19 307.71L497.77 300.452C501.816 297.043 506.511 294.426 511.855 292.601C517.198 290.797 522.673 289.895 528.281 289.895C537.187 289.895 543.949 292.172 548.566 296.725C553.184 301.299 555.493 307.875 555.493 316.453V350.928C555.493 359.396 557.637 365.939 561.925 370.558L555.493 376.001ZM521.519 367.424C528.886 367.424 534.735 365.389 539.067 361.32C543.421 357.252 545.598 351.973 545.598 345.485V333.113H528.776C519.43 333.113 512.723 334.455 508.655 337.138C504.587 339.843 502.553 344.275 502.553 350.433C502.553 355.932 504.202 360.133 507.501 363.036C510.799 365.961 515.472 367.424 521.519 367.424ZM603.783 376.991C595.866 376.991 589.962 374.902 586.07 370.723C582.156 366.544 580.199 359.946 580.199 350.928V271.586H590.094V292.205H615.987V301.112H590.094V350.928C590.094 357.856 591.391 362.442 593.986 364.685C596.559 366.951 599.769 368.084 603.618 368.084C605.927 368.084 607.851 367.941 609.39 367.655C610.929 367.391 612.633 366.709 614.503 365.609L618.956 373.197C614.887 375.726 609.83 376.991 603.783 376.991ZM714.941 378.476C709.443 378.476 703.891 377.299 698.284 374.946C692.676 372.57 687.75 369.293 683.506 365.114C679.284 360.936 676.459 356.207 675.029 350.928L683.44 347.629C685.529 354.337 689.62 359.638 695.711 363.531C701.824 367.446 708.234 369.403 714.941 369.403C719.998 369.403 724.616 368.325 728.794 366.17C732.972 364.037 736.271 361.012 738.69 357.098C741.109 353.205 742.318 348.784 742.318 343.835C742.318 338.557 740.856 334.213 737.931 330.804C735.028 327.395 730.114 323.986 723.187 320.577C713.841 316.068 706.75 312.384 701.912 309.525C697.074 306.666 693.116 303.279 690.037 299.364C686.959 295.471 685.42 290.83 685.42 285.442C685.42 280.163 686.849 275.489 689.708 271.421C692.566 267.352 696.381 264.218 701.153 262.018C705.947 259.819 711.093 258.719 716.59 258.719C721.208 258.719 725.518 259.566 729.52 261.259C733.544 262.975 736.678 265.339 738.921 268.352C741.186 271.388 742.208 274.775 741.988 278.514L732.752 278.019C732.752 274.83 731.015 272.322 727.541 270.497C724.089 268.693 720.328 267.792 716.26 267.792C710.543 267.792 705.617 269.441 701.483 272.74C697.371 276.039 695.315 280.108 695.315 284.947C695.315 288.686 696.579 292.04 699.108 295.009C701.637 297.978 704.628 300.474 708.08 302.498C711.554 304.543 715.93 306.776 721.208 309.195C722.307 309.745 723.462 310.295 724.671 310.845C725.881 311.394 727.035 311.999 728.135 312.659C736.821 317.278 743 321.973 746.672 326.746C750.366 331.541 752.213 337.292 752.213 344C752.213 350.708 750.476 356.669 747.002 361.881C743.549 367.116 738.965 371.185 733.247 374.088C727.53 377.013 721.428 378.476 714.941 378.476ZM772.994 374.682V292.04H782.889V374.682H772.994ZM777.612 281.483C775.742 281.483 774.115 280.79 772.73 279.404C771.366 278.041 770.685 276.424 770.685 274.555C770.685 272.575 771.366 270.893 772.73 269.507C774.115 268.144 775.742 267.462 777.612 267.462C779.591 267.462 781.262 268.144 782.625 269.507C784.011 270.893 784.703 272.575 784.703 274.555C784.703 276.424 784.011 278.041 782.625 279.404C781.262 280.79 779.591 281.483 777.612 281.483ZM810.068 316.453C810.068 307.985 807.814 301.497 803.307 296.988L809.574 290.885C814.411 294.294 817.49 299.243 818.809 305.731C822.438 300.562 826.506 296.736 831.014 294.25C835.522 291.787 840.964 290.555 847.341 290.555C855.917 290.555 862.602 292.865 867.396 297.483C872.167 302.102 874.498 308.755 874.388 317.443L873.894 374.682H864.328L864.493 319.257C864.493 306.061 858.501 299.463 846.516 299.463C840.909 299.463 836.159 300.804 832.267 303.488C828.353 306.193 824.252 310.46 819.964 316.288V374.682H810.068V316.453ZM934.42 417.075C909.132 417.075 896.488 406.683 896.488 385.899C896.488 384.139 896.763 380.895 897.313 376.166L897.807 371.712C895.609 369.953 893.827 367.754 892.464 365.114C891.079 362.475 890.386 359.671 890.386 356.702C890.386 353.623 891.211 350.433 892.86 347.134C894.509 343.835 897.313 341.306 901.271 339.547C902.59 338.997 903.943 338.612 905.328 338.392C906.691 338.172 908.582 338.007 911.001 337.897C906.823 332.838 904.734 326.845 904.734 319.917C904.734 313.869 906.142 308.612 908.956 304.147C911.749 299.705 915.509 296.274 920.237 293.854C924.965 291.435 930.187 290.225 935.905 290.225C940.193 290.225 944.041 290.995 947.449 292.535H974.662V300.947L959.654 299.958C964.601 305.236 967.075 311.779 967.075 319.587C967.075 328.605 964.195 335.665 958.433 340.767C952.65 345.892 945.14 348.454 935.905 348.454C929.858 348.454 924.525 347.299 919.907 344.99C917.488 344.77 915.344 344.66 913.475 344.66C911.056 344.66 909.187 344.825 907.868 345.155C905.999 345.705 904.207 346.969 902.491 348.949C900.798 350.928 899.951 353.458 899.951 356.537C899.951 360.056 901.216 362.53 903.745 363.96C906.274 365.389 910.012 366.104 914.96 366.104L926.174 365.774L940.193 365.444C951.408 365.444 960.28 367.479 966.811 371.548C973.364 375.616 976.641 381.775 976.641 390.022C976.641 399.37 972.595 406.221 964.502 410.576C956.432 414.908 946.405 417.075 934.42 417.075ZM936.235 339.876C943.051 339.876 948.252 338.007 951.836 334.268C955.399 330.529 957.18 325.69 957.18 319.752C957.18 313.374 955.223 308.337 951.309 304.642C947.416 300.969 942.227 299.133 935.74 299.133C929.143 299.133 923.975 301.002 920.237 304.741C916.499 308.48 914.63 313.484 914.63 319.752C914.63 326.24 916.609 331.211 920.567 334.664C924.525 338.139 929.748 339.876 936.235 339.876ZM934.42 408.167C955.97 408.167 966.745 402.229 966.745 390.352C966.745 379.685 957.675 374.352 939.533 374.352C934.475 374.352 929.967 374.462 926.009 374.682L918.753 374.847C913.365 374.847 909.132 374.572 906.054 374.022L906.384 384.909C906.603 390.957 907.703 395.664 909.682 399.029C911.661 402.372 914.608 404.736 918.522 406.122C922.414 407.485 927.714 408.167 934.42 408.167ZM992.803 254.925H1002.7V304.246C1006.11 299.518 1010.07 296.054 1014.57 293.854C1019.08 291.655 1024.3 290.555 1030.24 290.555C1039.15 290.555 1045.82 292.887 1050.26 297.549C1054.73 302.234 1056.96 308.865 1056.96 317.443V374.682H1047.06V319.257C1047.06 313.209 1045.58 308.447 1042.61 304.972C1039.64 301.519 1035.19 299.793 1029.25 299.793C1023.97 299.793 1019.25 301.167 1015.07 303.916C1010.89 306.666 1006.77 310.79 1002.7 316.288V374.682H992.803V254.925Z" fill="#F1F1F1"/>
</g>
</g>
</g>
</g>
</g>
</g>
</g>
</g>
<defs>
<clipPath id="clip0_16_175">
<rect width="1075" height="672" fill="white"/>
</clipPath>
<clipPath id="clip1_16_175">
<rect width="1075" height="672" fill="white"/>
</clipPath>
<clipPath id="clip2_16_175">
<rect width="1075" height="181.944" fill="white" transform="translate(0 245.028)"/>
</clipPath>
<clipPath id="clip3_16_175">
<rect width="1075" height="181.944" fill="white" transform="translate(0 245.028)"/>
</clipPath>
<clipPath id="clip4_16_175">
<rect width="1075" height="181.944" fill="white" transform="translate(0 245.028)"/>
</clipPath>
<clipPath id="clip5_16_175">
<rect width="1075" height="181.944" fill="white" transform="translate(0 245.028)"/>
</clipPath>
<clipPath id="clip6_16_175">
<rect width="1075" height="181.944" fill="white" transform="translate(0 245.028)"/>
</clipPath>
<clipPath id="clip7_16_175">
<rect width="1075" height="181.944" fill="white" transform="translate(0 245.028)"/>
</clipPath>
<clipPath id="clip8_16_175">
<rect width="1075" height="181.944" fill="white" transform="translate(0 245.028)"/>
</clipPath>
<clipPath id="clip9_16_175">
<rect width="1075" height="181.944" fill="white" transform="translate(0 245.028)"/>
</clipPath>
<clipPath id="clip10_16_175">
<rect width="1075" height="181.944" fill="white" transform="translate(0 245.028)"/>
</clipPath>
<clipPath id="clip11_16_175">
<rect width="1075" height="181.944" fill="white" transform="translate(0 245.028)"/>
</clipPath>
<clipPath id="clip12_16_175">
<rect width="1075" height="181.944" fill="white" transform="translate(0 245.028)"/>
</clipPath>
<clipPath id="clip13_16_175">
<rect width="1075" height="181.944" fill="white" transform="translate(0 245.028)"/>
</clipPath>
</defs>
</svg>
