<svg width="120" height="126" viewBox="0 0 120 126" fill="none" xmlns="http://www.w3.org/2000/svg">
<g clip-path="url(#clip0_14_128)">
<path d="M118.655 18.1909L79.7945 61.8714C79.6836 61.9915 79.5491 62.0873 79.3994 62.1529C79.2498 62.2184 79.0882 62.2523 78.9248 62.2523C78.7614 62.2523 78.5998 62.2184 78.4501 62.1529C78.3004 62.0873 78.1659 61.9915 78.055 61.8714L58.2174 41.3834C58.0492 41.1732 57.9576 40.9118 57.9576 40.6425C57.9576 40.3731 58.0492 40.1118 58.2174 39.9015L64.7683 31.4914C64.8779 31.3385 65.0224 31.2138 65.1897 31.1278C65.3571 31.0419 65.5425 30.997 65.7306 30.997C65.9186 30.997 66.104 31.0419 66.2714 31.1278C66.4387 31.2138 66.5832 31.3385 66.6928 31.4914L77.796 43.7916C77.9071 43.9241 78.0459 44.0306 78.2025 44.1036C78.3592 44.1767 78.5299 44.2145 78.7027 44.2145C78.8755 44.2145 79.0462 44.1767 79.2029 44.1036C79.3595 44.0306 79.4983 43.9241 79.6095 43.7916L110.55 1.33375C110.636 1.20828 110.687 1.06202 110.698 0.910173C110.708 0.758327 110.678 0.606439 110.61 0.470299C110.542 0.334158 110.439 0.218736 110.311 0.13603C110.183 0.0533233 110.036 0.00635255 109.884 0L0.925261 0C0.679867 0 0.444523 0.0975835 0.271003 0.271283C0.0974826 0.444983 0 0.68057 0 0.926219L0 125.04C0 125.285 0.0974826 125.521 0.271003 125.694C0.444523 125.868 0.679867 125.966 0.925261 125.966H119.359C119.604 125.966 119.839 125.868 120.013 125.694C120.186 125.521 120.284 125.285 120.284 125.04V18.7467C120.358 18.5305 120.342 18.2939 120.242 18.0889C120.141 17.884 119.963 17.7274 119.747 17.6537C119.531 17.58 119.295 17.5952 119.09 17.696C118.886 17.7967 118.729 17.9748 118.655 18.1909ZM33.5315 112.147C25.7566 112.539 18.1354 109.881 12.2875 104.737C12.1027 104.527 12.0008 104.257 12.0008 103.977C12.0008 103.698 12.1027 103.428 12.2875 103.218L16.9138 96.7343C16.9902 96.6015 17.0923 96.4853 17.2143 96.3927C17.3362 96.3 17.4754 96.2327 17.6237 96.1947C17.772 96.1567 17.9264 96.1489 18.0778 96.1715C18.2292 96.1942 18.3745 96.247 18.5052 96.3267C22.7314 100.249 28.2866 102.42 34.0496 102.403C40.1193 102.403 43.0802 99.587 43.0802 96.6231C43.0802 87.435 13.1757 93.7333 13.1757 74.1716C13.1757 65.5392 20.5778 58.3518 32.8653 58.3518C39.9168 58.1008 46.8202 60.4175 52.2958 64.8724C52.5016 65.0864 52.6165 65.3719 52.6165 65.6689C52.6165 65.966 52.5016 66.2515 52.2958 66.4655L47.7435 72.8008C47.6495 72.9268 47.5306 73.0321 47.3943 73.1103C47.2579 73.1884 47.107 73.2377 46.9509 73.2551C46.7947 73.2724 46.6367 73.2575 46.4865 73.2112C46.3364 73.165 46.1973 73.0883 46.078 72.986C42.0405 69.7737 37.0232 68.0472 31.866 68.0956C27.1287 68.0956 24.4639 70.2074 24.4639 73.3195C24.4639 81.5813 54.2943 76.0611 54.2943 95.5487C54.2943 104.959 47.5214 112.147 33.4945 112.147H33.5315ZM98.7439 94.1038C98.7491 94.2414 98.7258 94.3787 98.6756 94.5069C98.6253 94.6351 98.5492 94.7515 98.4519 94.8489C98.3546 94.9463 98.2383 95.0225 98.1102 95.0728C97.9821 95.1231 97.8451 95.1464 97.7076 95.1412H70.3198C70.276 95.1458 70.2335 95.1591 70.1948 95.1802C70.1561 95.2014 70.122 95.23 70.0945 95.2645C70.0669 95.299 70.0465 95.3386 70.0344 95.381C70.0222 95.4234 70.0186 95.4678 70.0238 95.5117C70.4679 98.0736 71.8536 100.376 73.9084 101.967C75.9632 103.558 78.5382 104.321 81.1269 104.107C84.5239 104.035 87.8224 102.952 90.6016 100.995C90.71 100.904 90.8366 100.837 90.9728 100.799C91.109 100.76 91.2518 100.751 91.3918 100.772C91.5318 100.793 91.6657 100.844 91.7847 100.92C91.9036 100.997 92.005 101.098 92.082 101.217L95.4129 106.071C95.5517 106.286 95.6058 106.545 95.5648 106.799C95.5238 107.052 95.3906 107.281 95.1909 107.441C90.7935 110.654 85.4587 112.321 80.0166 112.184C77.298 112.335 74.5777 111.917 72.0302 110.955C69.4826 109.993 67.1641 108.508 65.2231 106.597C63.2822 104.685 61.7618 102.389 60.7593 99.8545C59.7568 97.3203 59.2944 94.6044 59.4018 91.8809C59.3263 89.2227 59.79 86.5768 60.7648 84.1031C61.7397 81.6294 63.2054 79.3792 65.0734 77.4884C66.9414 75.5977 69.1729 74.1057 71.6332 73.1026C74.0934 72.0995 76.7313 71.6061 79.3874 71.6523C90.8977 71.6523 98.7069 80.2846 98.7069 92.9183L98.7439 94.1038Z" fill="#01A71C"/>
</g>
<defs>
<clipPath id="clip0_14_128">
<rect width="120" height="126" fill="white"/>
</clipPath>
</defs>
</svg>
